<mxfile host="65bd71144e" pages="19">
    <diagram id="iSPzxl_2xVxqQYnBs36q" name="従業員情報管理">
        <mxGraphModel dx="1591" dy="339" grid="1" gridSize="10" guides="1" tooltips="1" connect="1" arrows="1" fold="1" page="1" pageScale="1" pageWidth="827" pageHeight="1169" math="0" shadow="0">
            <root>
                <mxCell id="0"/>
                <mxCell id="1" style="locked=1;" parent="0"/>
                <mxCell id="2" value="管理者&lt;br&gt;正規社員" style="shape=umlActor;verticalLabelPosition=bottom;verticalAlign=top;html=1;" parent="1" vertex="1">
                    <mxGeometry x="-70" y="280" width="30" height="60" as="geometry"/>
                </mxCell>
                <mxCell id="3" value="ログイン済&lt;br&gt;ホーム画面" style="shape=umlBoundary;whiteSpace=wrap;html=1;fillColor=#dae8fc;strokeColor=#6c8ebf;" parent="1" vertex="1">
                    <mxGeometry x="120" y="40" width="100" height="80" as="geometry"/>
                </mxCell>
                <mxCell id="4" value="従業員情報&lt;br&gt;一覧画面" style="shape=umlBoundary;whiteSpace=wrap;html=1;fillColor=#dae8fc;strokeColor=#6c8ebf;" parent="1" vertex="1">
                    <mxGeometry x="120" y="160" width="100" height="80" as="geometry"/>
                </mxCell>
                <mxCell id="5" value="新規登録&lt;br&gt;画面" style="shape=umlBoundary;whiteSpace=wrap;html=1;fillColor=#dae8fc;strokeColor=#6c8ebf;" parent="1" vertex="1">
                    <mxGeometry x="120" y="280" width="100" height="80" as="geometry"/>
                </mxCell>
                <mxCell id="6" value="従業員情報&lt;br&gt;を取得する" style="ellipse;shape=umlControl;whiteSpace=wrap;html=1;fillColor=#f8cecc;strokeColor=#b85450;" parent="1" vertex="1">
                    <mxGeometry x="420" y="40" width="70" height="80" as="geometry"/>
                </mxCell>
                <mxCell id="7" value="従業員情報" style="ellipse;shape=umlEntity;whiteSpace=wrap;html=1;fillColor=#d5e8d4;strokeColor=#82b366;" parent="1" vertex="1">
                    <mxGeometry x="720" y="200" width="80" height="80" as="geometry"/>
                </mxCell>
                <mxCell id="13" value="表示する" style="ellipse;shape=umlControl;whiteSpace=wrap;html=1;fillColor=#f8cecc;strokeColor=#b85450;" parent="1" vertex="1">
                    <mxGeometry x="420" y="160" width="70" height="80" as="geometry"/>
                </mxCell>
                <mxCell id="14" value="登録する" style="ellipse;shape=umlControl;whiteSpace=wrap;html=1;fillColor=#f8cecc;strokeColor=#b85450;" parent="1" vertex="1">
                    <mxGeometry x="520" y="280" width="70" height="80" as="geometry"/>
                </mxCell>
                <mxCell id="18" value="詳細画面" style="shape=umlBoundary;whiteSpace=wrap;html=1;fillColor=#dae8fc;strokeColor=#6c8ebf;" parent="1" vertex="1">
                    <mxGeometry x="120" y="520" width="100" height="80" as="geometry"/>
                </mxCell>
                <mxCell id="19" value="更新する" style="ellipse;shape=umlControl;whiteSpace=wrap;html=1;fillColor=#f8cecc;strokeColor=#b85450;" parent="1" vertex="1">
                    <mxGeometry x="520" y="520" width="70" height="80" as="geometry"/>
                </mxCell>
                <mxCell id="22" value="" style="endArrow=classic;html=1;rounded=0;exitX=1;exitY=0.5;exitDx=0;exitDy=0;exitPerimeter=0;entryX=-0.019;entryY=0.489;entryDx=0;entryDy=0;entryPerimeter=0;" parent="1" source="3" target="6" edge="1">
                    <mxGeometry width="50" height="50" relative="1" as="geometry">
                        <mxPoint x="240" y="80" as="sourcePoint"/>
                        <mxPoint x="400" y="80" as="targetPoint"/>
                    </mxGeometry>
                </mxCell>
                <mxCell id="30" value="" style="endArrow=classic;html=1;rounded=0;entryX=1;entryY=0.5;entryDx=0;entryDy=0;entryPerimeter=0;" parent="1" target="5" edge="1">
                    <mxGeometry width="50" height="50" relative="1" as="geometry">
                        <mxPoint x="420" y="200" as="sourcePoint"/>
                        <mxPoint x="240" y="310" as="targetPoint"/>
                    </mxGeometry>
                </mxCell>
                <mxCell id="47" value="編集画面" style="shape=umlBoundary;whiteSpace=wrap;html=1;fillColor=#dae8fc;strokeColor=#6c8ebf;" parent="1" vertex="1">
                    <mxGeometry x="120" y="640" width="100" height="80" as="geometry"/>
                </mxCell>
                <mxCell id="ZzybReNuPlnDeFbL0gxh-54" value="「従業員情報（マスタ）」&lt;br&gt;を押下" style="text;html=1;strokeColor=none;fillColor=none;align=center;verticalAlign=middle;whiteSpace=wrap;rounded=0;" parent="1" vertex="1">
                    <mxGeometry x="230" y="40" width="160" height="30" as="geometry"/>
                </mxCell>
                <mxCell id="ZzybReNuPlnDeFbL0gxh-55" value="" style="endArrow=classic;html=1;rounded=0;" parent="1" edge="1">
                    <mxGeometry width="50" height="50" relative="1" as="geometry">
                        <mxPoint x="-30" y="320" as="sourcePoint"/>
                        <mxPoint x="110" y="80" as="targetPoint"/>
                    </mxGeometry>
                </mxCell>
                <mxCell id="ZzybReNuPlnDeFbL0gxh-57" value="" style="endArrow=classic;html=1;rounded=0;" parent="1" edge="1">
                    <mxGeometry width="50" height="50" relative="1" as="geometry">
                        <mxPoint x="-30" y="320" as="sourcePoint"/>
                        <mxPoint x="100" y="320" as="targetPoint"/>
                    </mxGeometry>
                </mxCell>
                <mxCell id="ZzybReNuPlnDeFbL0gxh-58" value="" style="endArrow=none;html=1;rounded=0;startArrow=classic;startFill=1;endFill=0;targetPerimeterSpacing=20;strokeWidth=1;sourcePerimeterSpacing=0;jumpSize=6;" parent="1" edge="1">
                    <mxGeometry width="50" height="50" relative="1" as="geometry">
                        <mxPoint x="-30" y="320" as="sourcePoint"/>
                        <mxPoint x="110" y="440" as="targetPoint"/>
                    </mxGeometry>
                </mxCell>
                <mxCell id="ZzybReNuPlnDeFbL0gxh-59" value="" style="endArrow=classic;html=1;rounded=0;" parent="1" edge="1">
                    <mxGeometry width="50" height="50" relative="1" as="geometry">
                        <mxPoint x="-30" y="320" as="sourcePoint"/>
                        <mxPoint x="110" y="560" as="targetPoint"/>
                    </mxGeometry>
                </mxCell>
                <mxCell id="DVjdoILMVo_sqKuuV5fY-52" value="" style="endArrow=classic;html=1;rounded=0;" parent="1" edge="1">
                    <mxGeometry width="50" height="50" relative="1" as="geometry">
                        <mxPoint x="-30" y="320" as="sourcePoint"/>
                        <mxPoint x="110" y="199.9999999999999" as="targetPoint"/>
                    </mxGeometry>
                </mxCell>
                <mxCell id="gHfgHg54n4XYzkmyc0fP-52" value="" style="endArrow=classic;startArrow=classic;html=1;rounded=0;" parent="1" edge="1">
                    <mxGeometry width="50" height="50" relative="1" as="geometry">
                        <mxPoint x="230" y="200" as="sourcePoint"/>
                        <mxPoint x="410" y="200" as="targetPoint"/>
                    </mxGeometry>
                </mxCell>
                <mxCell id="C6uqYW7Y-UoQvIZTcMAw-56" value="入力データを検証&lt;br&gt;する" style="ellipse;shape=umlControl;whiteSpace=wrap;html=1;fillColor=#f8cecc;strokeColor=#b85450;" parent="1" vertex="1">
                    <mxGeometry x="420" y="400" width="70" height="80" as="geometry"/>
                </mxCell>
                <mxCell id="kJ-GWj5jG-UgTbR0VbRe-52" value="削&lt;span style=&quot;color: rgba(0 , 0 , 0 , 0) ; font-family: monospace ; font-size: 0px&quot;&gt;%3CmxGraphModel%3E%3Croot%3E%3CmxCell%20id%3D%220%22%2F%3E%3CmxCell%20id%3D%221%22%20parent%3D%220%22%2F%3E%3CmxCell%20id%3D%222%22%20value%3D%22%22%20style%3D%22endArrow%3Dclassic%3Bhtml%3D1%3Brounded%3D0%3B%22%20edge%3D%221%22%20parent%3D%221%22%3E%3CmxGeometry%20width%3D%2250%22%20height%3D%2250%22%20relative%3D%221%22%20as%3D%22geometry%22%3E%3CmxPoint%20x%3D%22600%22%20y%3D%22320%22%20as%3D%22sourcePoint%22%2F%3E%3CmxPoint%20x%3D%22710%22%20y%3D%22250%22%20as%3D%22targetPoint%22%2F%3E%3C%2FmxGeometry%3E%3C%2FmxCell%3E%3C%2Froot%3E%3C%2FmxGraphModel%3E&lt;/span&gt;除する" style="ellipse;shape=umlControl;whiteSpace=wrap;html=1;fillColor=#f8cecc;strokeColor=#b85450;" parent="1" vertex="1">
                    <mxGeometry x="520" y="640" width="70" height="80" as="geometry"/>
                </mxCell>
                <mxCell id="kJ-GWj5jG-UgTbR0VbRe-65" value="" style="endArrow=classic;html=1;rounded=0;" parent="1" edge="1">
                    <mxGeometry width="50" height="50" relative="1" as="geometry">
                        <mxPoint x="500" y="90" as="sourcePoint"/>
                        <mxPoint x="710" y="220" as="targetPoint"/>
                    </mxGeometry>
                </mxCell>
                <mxCell id="5U8HVQcaq0ObK0b3aiE6-47" value="" style="endArrow=classic;html=1;rounded=0;" parent="1" edge="1">
                    <mxGeometry width="50" height="50" relative="1" as="geometry">
                        <mxPoint x="710" y="230" as="sourcePoint"/>
                        <mxPoint x="500" y="200" as="targetPoint"/>
                    </mxGeometry>
                </mxCell>
                <mxCell id="48" value="登録完了画面" style="shape=umlBoundary;whiteSpace=wrap;html=1;fillColor=#dae8fc;strokeColor=#6c8ebf;" parent="1" vertex="1">
                    <mxGeometry x="120" y="400" width="100" height="80" as="geometry"/>
                </mxCell>
                <mxCell id="bnLdfq8bpO9y8gzbrD8U-48" value="" style="endArrow=classic;html=1;rounded=0;" parent="1" edge="1">
                    <mxGeometry width="50" height="50" relative="1" as="geometry">
                        <mxPoint x="-30" y="320" as="sourcePoint"/>
                        <mxPoint x="110" y="680" as="targetPoint"/>
                    </mxGeometry>
                </mxCell>
                <mxCell id="pVjH9O9Lj6ZYsMyOechT-49" value="" style="endArrow=classic;html=1;rounded=0;" parent="1" edge="1">
                    <mxGeometry width="50" height="50" relative="1" as="geometry">
                        <mxPoint x="500" y="420" as="sourcePoint"/>
                        <mxPoint x="540" y="370" as="targetPoint"/>
                    </mxGeometry>
                </mxCell>
                <mxCell id="pVjH9O9Lj6ZYsMyOechT-50" value="" style="endArrow=classic;html=1;rounded=0;" parent="1" edge="1">
                    <mxGeometry width="50" height="50" relative="1" as="geometry">
                        <mxPoint x="600" y="320" as="sourcePoint"/>
                        <mxPoint x="710" y="240" as="targetPoint"/>
                    </mxGeometry>
                </mxCell>
                <mxCell id="pVjH9O9Lj6ZYsMyOechT-51" value="" style="endArrow=classic;startArrow=classic;html=1;rounded=0;" parent="1" edge="1">
                    <mxGeometry width="50" height="50" relative="1" as="geometry">
                        <mxPoint x="240" y="440" as="sourcePoint"/>
                        <mxPoint x="410" y="220" as="targetPoint"/>
                    </mxGeometry>
                </mxCell>
                <mxCell id="pVjH9O9Lj6ZYsMyOechT-54" value="" style="endArrow=classic;startArrow=classic;html=1;rounded=0;" parent="1" edge="1">
                    <mxGeometry width="50" height="50" relative="1" as="geometry">
                        <mxPoint x="240" y="560" as="sourcePoint"/>
                        <mxPoint x="440" y="250" as="targetPoint"/>
                    </mxGeometry>
                </mxCell>
                <mxCell id="pVjH9O9Lj6ZYsMyOechT-55" value="" style="endArrow=classic;html=1;rounded=0;exitX=0.504;exitY=1.015;exitDx=0;exitDy=0;exitPerimeter=0;" parent="1" source="13" edge="1">
                    <mxGeometry width="50" height="50" relative="1" as="geometry">
                        <mxPoint x="450" y="250" as="sourcePoint"/>
                        <mxPoint x="240" y="670" as="targetPoint"/>
                    </mxGeometry>
                </mxCell>
                <mxCell id="pVjH9O9Lj6ZYsMyOechT-56" value="" style="endArrow=classic;html=1;rounded=0;entryX=-0.057;entryY=0.5;entryDx=0;entryDy=0;entryPerimeter=0;startArrow=classic;startFill=1;" parent="1" target="C6uqYW7Y-UoQvIZTcMAw-56" edge="1">
                    <mxGeometry width="50" height="50" relative="1" as="geometry">
                        <mxPoint x="240" y="680" as="sourcePoint"/>
                        <mxPoint x="410" y="450" as="targetPoint"/>
                    </mxGeometry>
                </mxCell>
                <mxCell id="pVjH9O9Lj6ZYsMyOechT-57" value="" style="endArrow=classic;html=1;rounded=0;" parent="1" target="19" edge="1">
                    <mxGeometry width="50" height="50" relative="1" as="geometry">
                        <mxPoint x="480" y="490" as="sourcePoint"/>
                        <mxPoint x="550" y="380" as="targetPoint"/>
                    </mxGeometry>
                </mxCell>
                <mxCell id="pVjH9O9Lj6ZYsMyOechT-58" value="" style="endArrow=classic;html=1;rounded=0;" parent="1" edge="1">
                    <mxGeometry width="50" height="50" relative="1" as="geometry">
                        <mxPoint x="600" y="560" as="sourcePoint"/>
                        <mxPoint x="710" y="240" as="targetPoint"/>
                    </mxGeometry>
                </mxCell>
                <mxCell id="pVjH9O9Lj6ZYsMyOechT-59" value="完全削除&lt;br&gt;する" style="ellipse;shape=umlControl;whiteSpace=wrap;html=1;fillColor=#f8cecc;strokeColor=#b85450;" parent="1" vertex="1">
                    <mxGeometry x="520" y="760" width="70" height="80" as="geometry"/>
                </mxCell>
                <mxCell id="pVjH9O9Lj6ZYsMyOechT-60" value="" style="endArrow=classic;html=1;rounded=0;" parent="1" edge="1">
                    <mxGeometry width="50" height="50" relative="1" as="geometry">
                        <mxPoint x="240" y="680" as="sourcePoint"/>
                        <mxPoint x="510" y="680" as="targetPoint"/>
                    </mxGeometry>
                </mxCell>
                <mxCell id="pVjH9O9Lj6ZYsMyOechT-61" value="" style="endArrow=classic;html=1;rounded=0;entryX=-0.073;entryY=0.548;entryDx=0;entryDy=0;entryPerimeter=0;" parent="1" target="pVjH9O9Lj6ZYsMyOechT-59" edge="1">
                    <mxGeometry width="50" height="50" relative="1" as="geometry">
                        <mxPoint x="240" y="690" as="sourcePoint"/>
                        <mxPoint x="430" y="700" as="targetPoint"/>
                    </mxGeometry>
                </mxCell>
                <mxCell id="pVjH9O9Lj6ZYsMyOechT-62" value="正規社員の場合" style="text;html=1;strokeColor=none;fillColor=none;align=center;verticalAlign=middle;whiteSpace=wrap;rounded=0;" parent="1" vertex="1">
                    <mxGeometry x="340" y="650" width="110" height="30" as="geometry"/>
                </mxCell>
                <mxCell id="pVjH9O9Lj6ZYsMyOechT-63" value="管理者の場合" style="text;html=1;strokeColor=none;fillColor=none;align=center;verticalAlign=middle;whiteSpace=wrap;rounded=0;" parent="1" vertex="1">
                    <mxGeometry x="359" y="720" width="110" height="30" as="geometry"/>
                </mxCell>
                <mxCell id="pVjH9O9Lj6ZYsMyOechT-64" value="" style="endArrow=classic;html=1;rounded=0;" parent="1" edge="1">
                    <mxGeometry width="50" height="50" relative="1" as="geometry">
                        <mxPoint x="600" y="680" as="sourcePoint"/>
                        <mxPoint x="760" y="290" as="targetPoint"/>
                    </mxGeometry>
                </mxCell>
                <mxCell id="pVjH9O9Lj6ZYsMyOechT-65" value="" style="endArrow=classic;html=1;rounded=0;" parent="1" edge="1">
                    <mxGeometry width="50" height="50" relative="1" as="geometry">
                        <mxPoint x="600" y="800" as="sourcePoint"/>
                        <mxPoint x="760" y="290" as="targetPoint"/>
                    </mxGeometry>
                </mxCell>
                <mxCell id="pVjH9O9Lj6ZYsMyOechT-48" value="" style="endArrow=classic;html=1;rounded=0;entryX=-0.056;entryY=0.482;entryDx=0;entryDy=0;entryPerimeter=0;jumpStyle=arc;startArrow=classic;startFill=1;" parent="1" target="C6uqYW7Y-UoQvIZTcMAw-56" edge="1">
                    <mxGeometry width="50" height="50" relative="1" as="geometry">
                        <mxPoint x="220" y="320" as="sourcePoint"/>
                        <mxPoint x="250" y="320" as="targetPoint"/>
                    </mxGeometry>
                </mxCell>
            </root>
        </mxGraphModel>
    </diagram>
    <diagram id="CpNj_ktUT5lcBxkSo7AQ" name="店舗情報管理">
        <mxGraphModel dx="2475" dy="717" grid="1" gridSize="10" guides="1" tooltips="1" connect="1" arrows="1" fold="1" page="1" pageScale="1" pageWidth="827" pageHeight="1169" math="0" shadow="0">
            <root>
                <mxCell id="fTSLs3XvEAHBtL_dvW31-0"/>
                <mxCell id="fTSLs3XvEAHBtL_dvW31-1" style="locked=1;" parent="fTSLs3XvEAHBtL_dvW31-0"/>
                <mxCell id="nW3j3hZvvDRuFMYA7Enu-0" value="管理者" style="shape=umlActor;verticalLabelPosition=bottom;verticalAlign=top;html=1;" parent="fTSLs3XvEAHBtL_dvW31-1" vertex="1">
                    <mxGeometry x="-70" y="280" width="30" height="60" as="geometry"/>
                </mxCell>
                <mxCell id="nW3j3hZvvDRuFMYA7Enu-1" value="ログイン済&lt;br&gt;ホーム画面" style="shape=umlBoundary;whiteSpace=wrap;html=1;fillColor=#dae8fc;strokeColor=#6c8ebf;" parent="fTSLs3XvEAHBtL_dvW31-1" vertex="1">
                    <mxGeometry x="120" y="40" width="100" height="80" as="geometry"/>
                </mxCell>
                <mxCell id="nW3j3hZvvDRuFMYA7Enu-2" value="店舗情報&lt;br&gt;一覧画面" style="shape=umlBoundary;whiteSpace=wrap;html=1;fillColor=#dae8fc;strokeColor=#6c8ebf;" parent="fTSLs3XvEAHBtL_dvW31-1" vertex="1">
                    <mxGeometry x="120" y="160" width="100" height="80" as="geometry"/>
                </mxCell>
                <mxCell id="nW3j3hZvvDRuFMYA7Enu-3" value="新規登録&lt;br&gt;画面" style="shape=umlBoundary;whiteSpace=wrap;html=1;fillColor=#dae8fc;strokeColor=#6c8ebf;" parent="fTSLs3XvEAHBtL_dvW31-1" vertex="1">
                    <mxGeometry x="120" y="280" width="100" height="80" as="geometry"/>
                </mxCell>
                <mxCell id="nW3j3hZvvDRuFMYA7Enu-4" value="店舗情報&lt;br&gt;取得する" style="ellipse;shape=umlControl;whiteSpace=wrap;html=1;fillColor=#f8cecc;strokeColor=#b85450;" parent="fTSLs3XvEAHBtL_dvW31-1" vertex="1">
                    <mxGeometry x="420" y="40" width="70" height="80" as="geometry"/>
                </mxCell>
                <mxCell id="nW3j3hZvvDRuFMYA7Enu-5" value="店舗情報" style="ellipse;shape=umlEntity;whiteSpace=wrap;html=1;fillColor=#d5e8d4;strokeColor=#82b366;" parent="fTSLs3XvEAHBtL_dvW31-1" vertex="1">
                    <mxGeometry x="720" y="200" width="80" height="80" as="geometry"/>
                </mxCell>
                <mxCell id="nW3j3hZvvDRuFMYA7Enu-6" value="表示する" style="ellipse;shape=umlControl;whiteSpace=wrap;html=1;fillColor=#f8cecc;strokeColor=#b85450;" parent="fTSLs3XvEAHBtL_dvW31-1" vertex="1">
                    <mxGeometry x="420" y="160" width="70" height="80" as="geometry"/>
                </mxCell>
                <mxCell id="nW3j3hZvvDRuFMYA7Enu-7" value="登録する" style="ellipse;shape=umlControl;whiteSpace=wrap;html=1;fillColor=#f8cecc;strokeColor=#b85450;" parent="fTSLs3XvEAHBtL_dvW31-1" vertex="1">
                    <mxGeometry x="520" y="280" width="70" height="80" as="geometry"/>
                </mxCell>
                <mxCell id="nW3j3hZvvDRuFMYA7Enu-8" value="詳細画面" style="shape=umlBoundary;whiteSpace=wrap;html=1;fillColor=#dae8fc;strokeColor=#6c8ebf;" parent="fTSLs3XvEAHBtL_dvW31-1" vertex="1">
                    <mxGeometry x="120" y="400" width="100" height="80" as="geometry"/>
                </mxCell>
                <mxCell id="nW3j3hZvvDRuFMYA7Enu-9" value="更新する" style="ellipse;shape=umlControl;whiteSpace=wrap;html=1;fillColor=#f8cecc;strokeColor=#b85450;" parent="fTSLs3XvEAHBtL_dvW31-1" vertex="1">
                    <mxGeometry x="520" y="520" width="70" height="80" as="geometry"/>
                </mxCell>
                <mxCell id="nW3j3hZvvDRuFMYA7Enu-10" value="" style="endArrow=classic;html=1;rounded=0;" parent="fTSLs3XvEAHBtL_dvW31-1" edge="1">
                    <mxGeometry width="50" height="50" relative="1" as="geometry">
                        <mxPoint x="240.00000000000045" y="80" as="sourcePoint"/>
                        <mxPoint x="400" y="80" as="targetPoint"/>
                    </mxGeometry>
                </mxCell>
                <mxCell id="nW3j3hZvvDRuFMYA7Enu-11" value="" style="endArrow=classic;html=1;rounded=0;" parent="fTSLs3XvEAHBtL_dvW31-1" edge="1">
                    <mxGeometry width="50" height="50" relative="1" as="geometry">
                        <mxPoint x="410" y="230" as="sourcePoint"/>
                        <mxPoint x="240.00000000000045" y="310" as="targetPoint"/>
                    </mxGeometry>
                </mxCell>
                <mxCell id="nW3j3hZvvDRuFMYA7Enu-12" value="編集画面" style="shape=umlBoundary;whiteSpace=wrap;html=1;fillColor=#dae8fc;strokeColor=#6c8ebf;" parent="fTSLs3XvEAHBtL_dvW31-1" vertex="1">
                    <mxGeometry x="120" y="520" width="100" height="80" as="geometry"/>
                </mxCell>
                <mxCell id="nW3j3hZvvDRuFMYA7Enu-13" value="「店舗情報マスタ」&lt;br&gt;を押下" style="text;html=1;strokeColor=none;fillColor=none;align=center;verticalAlign=middle;whiteSpace=wrap;rounded=0;" parent="fTSLs3XvEAHBtL_dvW31-1" vertex="1">
                    <mxGeometry x="260" y="50" width="120" height="30" as="geometry"/>
                </mxCell>
                <mxCell id="nW3j3hZvvDRuFMYA7Enu-14" value="" style="endArrow=classic;html=1;rounded=0;" parent="fTSLs3XvEAHBtL_dvW31-1" edge="1">
                    <mxGeometry width="50" height="50" relative="1" as="geometry">
                        <mxPoint x="-29.999999999999545" y="320" as="sourcePoint"/>
                        <mxPoint x="110.00000000000045" y="80" as="targetPoint"/>
                    </mxGeometry>
                </mxCell>
                <mxCell id="nW3j3hZvvDRuFMYA7Enu-15" value="" style="endArrow=classic;html=1;rounded=0;" parent="fTSLs3XvEAHBtL_dvW31-1" edge="1">
                    <mxGeometry width="50" height="50" relative="1" as="geometry">
                        <mxPoint x="-29.999999999999545" y="320" as="sourcePoint"/>
                        <mxPoint x="100.00000000000045" y="320" as="targetPoint"/>
                    </mxGeometry>
                </mxCell>
                <mxCell id="nW3j3hZvvDRuFMYA7Enu-16" value="" style="endArrow=classic;html=1;rounded=0;" parent="fTSLs3XvEAHBtL_dvW31-1" edge="1">
                    <mxGeometry width="50" height="50" relative="1" as="geometry">
                        <mxPoint x="-29.999999999999545" y="320" as="sourcePoint"/>
                        <mxPoint x="110.00000000000045" y="440" as="targetPoint"/>
                    </mxGeometry>
                </mxCell>
                <mxCell id="nW3j3hZvvDRuFMYA7Enu-17" value="" style="endArrow=classic;html=1;rounded=0;" parent="fTSLs3XvEAHBtL_dvW31-1" edge="1">
                    <mxGeometry width="50" height="50" relative="1" as="geometry">
                        <mxPoint x="-29.999999999999545" y="320" as="sourcePoint"/>
                        <mxPoint x="110.00000000000045" y="560" as="targetPoint"/>
                    </mxGeometry>
                </mxCell>
                <mxCell id="nW3j3hZvvDRuFMYA7Enu-18" value="" style="endArrow=classic;html=1;rounded=0;" parent="fTSLs3XvEAHBtL_dvW31-1" edge="1">
                    <mxGeometry width="50" height="50" relative="1" as="geometry">
                        <mxPoint x="-29.999999999999545" y="320" as="sourcePoint"/>
                        <mxPoint x="110.00000000000045" y="200" as="targetPoint"/>
                    </mxGeometry>
                </mxCell>
                <mxCell id="nW3j3hZvvDRuFMYA7Enu-19" value="" style="endArrow=classic;startArrow=classic;html=1;rounded=0;" parent="fTSLs3XvEAHBtL_dvW31-1" edge="1">
                    <mxGeometry width="50" height="50" relative="1" as="geometry">
                        <mxPoint x="240.00000000000045" y="200" as="sourcePoint"/>
                        <mxPoint x="400" y="200" as="targetPoint"/>
                    </mxGeometry>
                </mxCell>
                <mxCell id="nW3j3hZvvDRuFMYA7Enu-24" value="入力データ&lt;br&gt;を検証する" style="ellipse;shape=umlControl;whiteSpace=wrap;html=1;fillColor=#f8cecc;strokeColor=#b85450;" parent="fTSLs3XvEAHBtL_dvW31-1" vertex="1">
                    <mxGeometry x="420" y="400" width="70" height="80" as="geometry"/>
                </mxCell>
                <mxCell id="nW3j3hZvvDRuFMYA7Enu-25" value="削除する" style="ellipse;shape=umlControl;whiteSpace=wrap;html=1;fillColor=#f8cecc;strokeColor=#b85450;" parent="fTSLs3XvEAHBtL_dvW31-1" vertex="1">
                    <mxGeometry x="520" y="640" width="70" height="80" as="geometry"/>
                </mxCell>
                <mxCell id="nW3j3hZvvDRuFMYA7Enu-26" value="" style="endArrow=classic;html=1;rounded=0;" parent="fTSLs3XvEAHBtL_dvW31-1" edge="1">
                    <mxGeometry width="50" height="50" relative="1" as="geometry">
                        <mxPoint x="480" y="410" as="sourcePoint"/>
                        <mxPoint x="520" y="360" as="targetPoint"/>
                    </mxGeometry>
                </mxCell>
                <mxCell id="nW3j3hZvvDRuFMYA7Enu-27" value="" style="endArrow=classic;html=1;rounded=0;entryX=0;entryY=0.75;entryDx=0;entryDy=0;entryPerimeter=0;startArrow=classic;startFill=1;" parent="fTSLs3XvEAHBtL_dvW31-1" target="nW3j3hZvvDRuFMYA7Enu-24" edge="1">
                    <mxGeometry width="50" height="50" relative="1" as="geometry">
                        <mxPoint x="240.00000000000045" y="560" as="sourcePoint"/>
                        <mxPoint x="410" y="440" as="targetPoint"/>
                    </mxGeometry>
                </mxCell>
                <mxCell id="nW3j3hZvvDRuFMYA7Enu-28" value="" style="endArrow=classic;html=1;rounded=0;" parent="fTSLs3XvEAHBtL_dvW31-1" target="nW3j3hZvvDRuFMYA7Enu-9" edge="1">
                    <mxGeometry width="50" height="50" relative="1" as="geometry">
                        <mxPoint x="490" y="480" as="sourcePoint"/>
                        <mxPoint x="550" y="380" as="targetPoint"/>
                    </mxGeometry>
                </mxCell>
                <mxCell id="nW3j3hZvvDRuFMYA7Enu-29" value="" style="endArrow=classic;html=1;rounded=0;" parent="fTSLs3XvEAHBtL_dvW31-1" edge="1">
                    <mxGeometry width="50" height="50" relative="1" as="geometry">
                        <mxPoint x="600" y="310" as="sourcePoint"/>
                        <mxPoint x="710" y="240" as="targetPoint"/>
                    </mxGeometry>
                </mxCell>
                <mxCell id="nW3j3hZvvDRuFMYA7Enu-30" value="" style="endArrow=classic;html=1;rounded=0;" parent="fTSLs3XvEAHBtL_dvW31-1" source="nW3j3hZvvDRuFMYA7Enu-9" edge="1">
                    <mxGeometry width="50" height="50" relative="1" as="geometry">
                        <mxPoint x="600" y="560" as="sourcePoint"/>
                        <mxPoint x="720" y="290" as="targetPoint"/>
                    </mxGeometry>
                </mxCell>
                <mxCell id="nW3j3hZvvDRuFMYA7Enu-31" value="" style="endArrow=classic;html=1;rounded=0;" parent="fTSLs3XvEAHBtL_dvW31-1" edge="1">
                    <mxGeometry width="50" height="50" relative="1" as="geometry">
                        <mxPoint x="600" y="680" as="sourcePoint"/>
                        <mxPoint x="760" y="290" as="targetPoint"/>
                    </mxGeometry>
                </mxCell>
                <mxCell id="nW3j3hZvvDRuFMYA7Enu-32" value="" style="endArrow=classic;html=1;rounded=0;" parent="fTSLs3XvEAHBtL_dvW31-1" edge="1">
                    <mxGeometry width="50" height="50" relative="1" as="geometry">
                        <mxPoint x="500" y="90" as="sourcePoint"/>
                        <mxPoint x="720" y="210" as="targetPoint"/>
                    </mxGeometry>
                </mxCell>
                <mxCell id="nW3j3hZvvDRuFMYA7Enu-33" value="" style="endArrow=classic;html=1;rounded=0;jumpStyle=none;" parent="fTSLs3XvEAHBtL_dvW31-1" edge="1">
                    <mxGeometry width="50" height="50" relative="1" as="geometry">
                        <mxPoint x="440" y="250" as="sourcePoint"/>
                        <mxPoint x="240.00000000000045" y="550" as="targetPoint"/>
                    </mxGeometry>
                </mxCell>
                <mxCell id="nW3j3hZvvDRuFMYA7Enu-34" value="" style="endArrow=classic;startArrow=classic;html=1;rounded=0;jumpStyle=none;" parent="fTSLs3XvEAHBtL_dvW31-1" edge="1">
                    <mxGeometry width="50" height="50" relative="1" as="geometry">
                        <mxPoint x="230.00000000000045" y="440" as="sourcePoint"/>
                        <mxPoint x="420" y="250" as="targetPoint"/>
                    </mxGeometry>
                </mxCell>
                <mxCell id="nW3j3hZvvDRuFMYA7Enu-37" value="" style="endArrow=classic;html=1;rounded=0;" parent="fTSLs3XvEAHBtL_dvW31-1" edge="1">
                    <mxGeometry width="50" height="50" relative="1" as="geometry">
                        <mxPoint x="710" y="230" as="sourcePoint"/>
                        <mxPoint x="500" y="200" as="targetPoint"/>
                    </mxGeometry>
                </mxCell>
                <mxCell id="nW3j3hZvvDRuFMYA7Enu-38" value="" style="endArrow=classic;html=1;rounded=0;jumpStyle=arc;startArrow=classic;startFill=1;" parent="fTSLs3XvEAHBtL_dvW31-1" target="nW3j3hZvvDRuFMYA7Enu-24" edge="1">
                    <mxGeometry width="50" height="50" relative="1" as="geometry">
                        <mxPoint x="240.00000000000045" y="320" as="sourcePoint"/>
                        <mxPoint x="460" y="320" as="targetPoint"/>
                    </mxGeometry>
                </mxCell>
                <mxCell id="nW3j3hZvvDRuFMYA7Enu-39" value="" style="endArrow=classic;html=1;rounded=0;jumpStyle=arc;" parent="fTSLs3XvEAHBtL_dvW31-1" edge="1">
                    <mxGeometry width="50" height="50" relative="1" as="geometry">
                        <mxPoint x="230.00000000000045" y="450" as="sourcePoint"/>
                        <mxPoint x="510" y="680" as="targetPoint"/>
                    </mxGeometry>
                </mxCell>
            </root>
        </mxGraphModel>
    </diagram>
    <diagram id="w_k554iymfJO7y2h8K5w" name="正規非正規ユーザの権限編集">
        <mxGraphModel dx="1816" dy="430" grid="1" gridSize="10" guides="1" tooltips="1" connect="1" arrows="1" fold="1" page="1" pageScale="1" pageWidth="827" pageHeight="1169" math="0" shadow="0">
            <root>
                <mxCell id="ASrqJBNXCCzHL_zLXTTT-0"/>
                <mxCell id="ASrqJBNXCCzHL_zLXTTT-1" style="locked=1;" parent="ASrqJBNXCCzHL_zLXTTT-0"/>
                <mxCell id="bBes3nt63XXIDMHqk0Tu-0" value="管理者" style="shape=umlActor;verticalLabelPosition=bottom;verticalAlign=top;html=1;" parent="ASrqJBNXCCzHL_zLXTTT-1" vertex="1">
                    <mxGeometry x="-70" y="280" width="30" height="60" as="geometry"/>
                </mxCell>
                <mxCell id="bBes3nt63XXIDMHqk0Tu-1" value="ログイン済&lt;br&gt;ホーム画面" style="shape=umlBoundary;whiteSpace=wrap;html=1;fillColor=#dae8fc;strokeColor=#6c8ebf;" parent="ASrqJBNXCCzHL_zLXTTT-1" vertex="1">
                    <mxGeometry x="120" y="120" width="100" height="80" as="geometry"/>
                </mxCell>
                <mxCell id="bBes3nt63XXIDMHqk0Tu-2" value="権限編集&lt;br&gt;画面" style="shape=umlBoundary;whiteSpace=wrap;html=1;fillColor=#dae8fc;strokeColor=#6c8ebf;" parent="ASrqJBNXCCzHL_zLXTTT-1" vertex="1">
                    <mxGeometry x="120" y="440" width="100" height="80" as="geometry"/>
                </mxCell>
                <mxCell id="bBes3nt63XXIDMHqk0Tu-7" value="" style="endArrow=classic;html=1;rounded=0;" parent="ASrqJBNXCCzHL_zLXTTT-1" edge="1">
                    <mxGeometry width="50" height="50" relative="1" as="geometry">
                        <mxPoint x="-30" y="320" as="sourcePoint"/>
                        <mxPoint x="110" y="160" as="targetPoint"/>
                    </mxGeometry>
                </mxCell>
                <mxCell id="bBes3nt63XXIDMHqk0Tu-15" value="「ユーザ権限マスタ」を押下" style="text;html=1;strokeColor=none;fillColor=none;align=center;verticalAlign=middle;whiteSpace=wrap;rounded=0;" parent="ASrqJBNXCCzHL_zLXTTT-1" vertex="1">
                    <mxGeometry x="260" y="120" width="130" height="30" as="geometry"/>
                </mxCell>
                <mxCell id="bBes3nt63XXIDMHqk0Tu-16" value="権限情報を取得する" style="ellipse;shape=umlControl;whiteSpace=wrap;html=1;fillColor=#f8cecc;strokeColor=#b85450;" parent="ASrqJBNXCCzHL_zLXTTT-1" vertex="1">
                    <mxGeometry x="414" y="120" width="70" height="80" as="geometry"/>
                </mxCell>
                <mxCell id="svg3mRwU3nfKlfLp6-p5-1" value="更新する" style="ellipse;shape=umlControl;whiteSpace=wrap;html=1;fillColor=#f8cecc;strokeColor=#b85450;" parent="ASrqJBNXCCzHL_zLXTTT-1" vertex="1">
                    <mxGeometry x="414" y="600" width="70" height="80" as="geometry"/>
                </mxCell>
                <mxCell id="svg3mRwU3nfKlfLp6-p5-2" value="" style="endArrow=classic;html=1;rounded=0;" parent="ASrqJBNXCCzHL_zLXTTT-1" edge="1">
                    <mxGeometry width="50" height="50" relative="1" as="geometry">
                        <mxPoint x="240" y="160" as="sourcePoint"/>
                        <mxPoint x="400" y="160" as="targetPoint"/>
                    </mxGeometry>
                </mxCell>
                <mxCell id="_z_81RZQ63P08kHzEF6Z-0" value="権限情報" style="ellipse;shape=umlEntity;whiteSpace=wrap;html=1;fillColor=#d5e8d4;strokeColor=#82b366;" parent="ASrqJBNXCCzHL_zLXTTT-1" vertex="1">
                    <mxGeometry x="640" y="200" width="80" height="80" as="geometry"/>
                </mxCell>
                <mxCell id="_z_81RZQ63P08kHzEF6Z-1" value="" style="endArrow=classic;html=1;rounded=0;startArrow=classic;startFill=1;" parent="ASrqJBNXCCzHL_zLXTTT-1" edge="1">
                    <mxGeometry width="50" height="50" relative="1" as="geometry">
                        <mxPoint x="500" y="160" as="sourcePoint"/>
                        <mxPoint x="630" y="240" as="targetPoint"/>
                    </mxGeometry>
                </mxCell>
                <mxCell id="IoQcXrIahRn48QSyjaG7-6" value="" style="endArrow=classic;html=1;rounded=0;" parent="ASrqJBNXCCzHL_zLXTTT-1" edge="1">
                    <mxGeometry width="50" height="50" relative="1" as="geometry">
                        <mxPoint x="-30" y="320" as="sourcePoint"/>
                        <mxPoint x="110" y="480" as="targetPoint"/>
                    </mxGeometry>
                </mxCell>
                <mxCell id="lKW3KEL7OACeddSh6zZL-2" value="更新内容を検証する" style="ellipse;shape=umlControl;whiteSpace=wrap;html=1;fillColor=#f8cecc;strokeColor=#b85450;" parent="ASrqJBNXCCzHL_zLXTTT-1" vertex="1">
                    <mxGeometry x="414" y="440" width="70" height="80" as="geometry"/>
                </mxCell>
                <mxCell id="lKW3KEL7OACeddSh6zZL-3" value="" style="endArrow=classic;startArrow=classic;html=1;rounded=0;" parent="ASrqJBNXCCzHL_zLXTTT-1" edge="1">
                    <mxGeometry width="50" height="50" relative="1" as="geometry">
                        <mxPoint x="240" y="480" as="sourcePoint"/>
                        <mxPoint x="400" y="480" as="targetPoint"/>
                    </mxGeometry>
                </mxCell>
                <mxCell id="lKW3KEL7OACeddSh6zZL-4" value="" style="endArrow=classic;html=1;rounded=0;entryX=0.514;entryY=0;entryDx=0;entryDy=0;entryPerimeter=0;" parent="ASrqJBNXCCzHL_zLXTTT-1" target="svg3mRwU3nfKlfLp6-p5-1" edge="1">
                    <mxGeometry width="50" height="50" relative="1" as="geometry">
                        <mxPoint x="450" y="530" as="sourcePoint"/>
                        <mxPoint x="510" y="330" as="targetPoint"/>
                    </mxGeometry>
                </mxCell>
                <mxCell id="lKW3KEL7OACeddSh6zZL-5" value="" style="endArrow=classic;html=1;rounded=0;" parent="ASrqJBNXCCzHL_zLXTTT-1" edge="1">
                    <mxGeometry width="50" height="50" relative="1" as="geometry">
                        <mxPoint x="490" y="640" as="sourcePoint"/>
                        <mxPoint x="630" y="260" as="targetPoint"/>
                    </mxGeometry>
                </mxCell>
                <mxCell id="Fc4FhXwBNCxa6NS3aQgb-0" value="" style="endArrow=classic;html=1;rounded=0;" parent="ASrqJBNXCCzHL_zLXTTT-1" edge="1">
                    <mxGeometry width="50" height="50" relative="1" as="geometry">
                        <mxPoint x="410" y="190" as="sourcePoint"/>
                        <mxPoint x="210" y="430" as="targetPoint"/>
                    </mxGeometry>
                </mxCell>
                <mxCell id="Fc4FhXwBNCxa6NS3aQgb-1" value="選択内容に問題があればエラーメッセージを&lt;br&gt;表示する" style="text;html=1;strokeColor=none;fillColor=none;align=center;verticalAlign=middle;whiteSpace=wrap;rounded=0;" parent="ASrqJBNXCCzHL_zLXTTT-1" vertex="1">
                    <mxGeometry x="250" y="490" width="140" height="30" as="geometry"/>
                </mxCell>
            </root>
        </mxGraphModel>
    </diagram>
    <diagram id="o1we0pB541-lX3KxvMWT" name="従業員情報参照">
        <mxGraphModel dx="1816" dy="430" grid="1" gridSize="10" guides="1" tooltips="1" connect="1" arrows="1" fold="1" page="1" pageScale="1" pageWidth="827" pageHeight="1169" math="0" shadow="0">
            <root>
                <mxCell id="vCAVx6xAhASOeBfDmkAW-0"/>
                <mxCell id="vCAVx6xAhASOeBfDmkAW-1" style="locked=1;" parent="vCAVx6xAhASOeBfDmkAW-0"/>
                <mxCell id="Vfnlr6AHZ-N0M1EPPgbS-0" value="ログイン済&lt;br&gt;ホーム画面" style="shape=umlBoundary;whiteSpace=wrap;html=1;fillColor=#dae8fc;strokeColor=#6c8ebf;" parent="vCAVx6xAhASOeBfDmkAW-1" vertex="1">
                    <mxGeometry x="120" y="120" width="100" height="80" as="geometry"/>
                </mxCell>
                <mxCell id="Vfnlr6AHZ-N0M1EPPgbS-1" value="従業員情報&lt;br&gt;一覧画面" style="shape=umlBoundary;whiteSpace=wrap;html=1;fillColor=#dae8fc;strokeColor=#6c8ebf;" parent="vCAVx6xAhASOeBfDmkAW-1" vertex="1">
                    <mxGeometry x="120" y="280" width="100" height="80" as="geometry"/>
                </mxCell>
                <mxCell id="Vfnlr6AHZ-N0M1EPPgbS-2" value="詳細画面" style="shape=umlBoundary;whiteSpace=wrap;html=1;fillColor=#dae8fc;strokeColor=#6c8ebf;" parent="vCAVx6xAhASOeBfDmkAW-1" vertex="1">
                    <mxGeometry x="120" y="440" width="100" height="80" as="geometry"/>
                </mxCell>
                <mxCell id="Vfnlr6AHZ-N0M1EPPgbS-3" value="" style="endArrow=classic;html=1;rounded=0;" parent="vCAVx6xAhASOeBfDmkAW-1" edge="1">
                    <mxGeometry width="50" height="50" relative="1" as="geometry">
                        <mxPoint x="-30" y="320" as="sourcePoint"/>
                        <mxPoint x="110" y="160" as="targetPoint"/>
                    </mxGeometry>
                </mxCell>
                <mxCell id="Vfnlr6AHZ-N0M1EPPgbS-4" value="" style="endArrow=classic;html=1;rounded=0;" parent="vCAVx6xAhASOeBfDmkAW-1" edge="1">
                    <mxGeometry width="50" height="50" relative="1" as="geometry">
                        <mxPoint x="-30" y="320" as="sourcePoint"/>
                        <mxPoint x="110" y="480" as="targetPoint"/>
                    </mxGeometry>
                </mxCell>
                <mxCell id="Vfnlr6AHZ-N0M1EPPgbS-5" value="「従業員情報」を押下" style="text;html=1;strokeColor=none;fillColor=none;align=center;verticalAlign=middle;whiteSpace=wrap;rounded=0;" parent="vCAVx6xAhASOeBfDmkAW-1" vertex="1">
                    <mxGeometry x="270" y="120" width="90" height="30" as="geometry"/>
                </mxCell>
                <mxCell id="Vfnlr6AHZ-N0M1EPPgbS-6" value="" style="endArrow=classic;html=1;rounded=0;" parent="vCAVx6xAhASOeBfDmkAW-1" edge="1">
                    <mxGeometry width="50" height="50" relative="1" as="geometry">
                        <mxPoint x="-30" y="320" as="sourcePoint"/>
                        <mxPoint x="110" y="320" as="targetPoint"/>
                    </mxGeometry>
                </mxCell>
                <mxCell id="NG94TQrBFLg8W1ztbxbr-0" value="正規社員&lt;br&gt;非正規社員" style="shape=umlActor;verticalLabelPosition=bottom;verticalAlign=top;html=1;" parent="vCAVx6xAhASOeBfDmkAW-1" vertex="1">
                    <mxGeometry x="-70" y="280" width="30" height="60" as="geometry"/>
                </mxCell>
                <mxCell id="SI_BDwgW4Lhpb8TTPr_U-0" value="従業員情報&lt;br&gt;を取得する" style="ellipse;shape=umlControl;whiteSpace=wrap;html=1;fillColor=#f8cecc;strokeColor=#b85450;" parent="vCAVx6xAhASOeBfDmkAW-1" vertex="1">
                    <mxGeometry x="414" y="120" width="70" height="80" as="geometry"/>
                </mxCell>
                <mxCell id="SI_BDwgW4Lhpb8TTPr_U-1" value="表示する" style="ellipse;shape=umlControl;whiteSpace=wrap;html=1;fillColor=#f8cecc;strokeColor=#b85450;" parent="vCAVx6xAhASOeBfDmkAW-1" vertex="1">
                    <mxGeometry x="414" y="280" width="70" height="80" as="geometry"/>
                </mxCell>
                <mxCell id="SI_BDwgW4Lhpb8TTPr_U-3" value="" style="endArrow=classic;html=1;rounded=0;" parent="vCAVx6xAhASOeBfDmkAW-1" edge="1">
                    <mxGeometry width="50" height="50" relative="1" as="geometry">
                        <mxPoint x="239.99999999999977" y="160" as="sourcePoint"/>
                        <mxPoint x="400" y="160" as="targetPoint"/>
                    </mxGeometry>
                </mxCell>
                <mxCell id="SI_BDwgW4Lhpb8TTPr_U-5" value="" style="endArrow=classic;html=1;rounded=0;" parent="vCAVx6xAhASOeBfDmkAW-1" edge="1">
                    <mxGeometry width="50" height="50" relative="1" as="geometry">
                        <mxPoint x="400" y="330" as="sourcePoint"/>
                        <mxPoint x="239.99999999999977" y="480" as="targetPoint"/>
                    </mxGeometry>
                </mxCell>
                <mxCell id="OHJyPGsI8F6JBdYVeecM-0" value="従業員情報" style="ellipse;shape=umlEntity;whiteSpace=wrap;html=1;fillColor=#d5e8d4;strokeColor=#82b366;" parent="vCAVx6xAhASOeBfDmkAW-1" vertex="1">
                    <mxGeometry x="640" y="200" width="80" height="80" as="geometry"/>
                </mxCell>
                <mxCell id="OHJyPGsI8F6JBdYVeecM-1" value="" style="endArrow=classic;html=1;rounded=0;" parent="vCAVx6xAhASOeBfDmkAW-1" edge="1">
                    <mxGeometry width="50" height="50" relative="1" as="geometry">
                        <mxPoint x="500" y="160" as="sourcePoint"/>
                        <mxPoint x="630" y="240" as="targetPoint"/>
                    </mxGeometry>
                </mxCell>
                <mxCell id="OHJyPGsI8F6JBdYVeecM-2" value="" style="endArrow=classic;html=1;rounded=0;" parent="vCAVx6xAhASOeBfDmkAW-1" edge="1">
                    <mxGeometry width="50" height="50" relative="1" as="geometry">
                        <mxPoint x="630" y="250" as="sourcePoint"/>
                        <mxPoint x="500" y="320" as="targetPoint"/>
                    </mxGeometry>
                </mxCell>
                <mxCell id="AvGeEPQrjgJoGsiPnstD-0" value="" style="endArrow=classic;startArrow=classic;html=1;rounded=0;" parent="vCAVx6xAhASOeBfDmkAW-1" edge="1">
                    <mxGeometry width="50" height="50" relative="1" as="geometry">
                        <mxPoint x="240" y="320" as="sourcePoint"/>
                        <mxPoint x="400" y="320" as="targetPoint"/>
                    </mxGeometry>
                </mxCell>
            </root>
        </mxGraphModel>
    </diagram>
    <diagram id="T3UCkDnLSe7B-hkeW1Hc" name="店舗情報参照">
        <mxGraphModel dx="1816" dy="430" grid="1" gridSize="10" guides="1" tooltips="1" connect="1" arrows="1" fold="1" page="1" pageScale="1" pageWidth="827" pageHeight="1169" math="0" shadow="0">
            <root>
                <mxCell id="dxEq_eG8Xxh_2Hl3lJVE-0"/>
                <mxCell id="dxEq_eG8Xxh_2Hl3lJVE-1" style="locked=1;" parent="dxEq_eG8Xxh_2Hl3lJVE-0"/>
                <mxCell id="uvHnYzWHBnzQ2yUbMlZ--0" value="ログイン済&lt;br&gt;ホーム画面" style="shape=umlBoundary;whiteSpace=wrap;html=1;fillColor=#dae8fc;strokeColor=#6c8ebf;" parent="dxEq_eG8Xxh_2Hl3lJVE-1" vertex="1">
                    <mxGeometry x="120" y="120" width="100" height="80" as="geometry"/>
                </mxCell>
                <mxCell id="uvHnYzWHBnzQ2yUbMlZ--1" value="店舗情報&lt;br&gt;一覧画面" style="shape=umlBoundary;whiteSpace=wrap;html=1;fillColor=#dae8fc;strokeColor=#6c8ebf;" parent="dxEq_eG8Xxh_2Hl3lJVE-1" vertex="1">
                    <mxGeometry x="120" y="280" width="100" height="80" as="geometry"/>
                </mxCell>
                <mxCell id="uvHnYzWHBnzQ2yUbMlZ--2" value="詳細画面" style="shape=umlBoundary;whiteSpace=wrap;html=1;fillColor=#dae8fc;strokeColor=#6c8ebf;" parent="dxEq_eG8Xxh_2Hl3lJVE-1" vertex="1">
                    <mxGeometry x="120" y="440" width="100" height="80" as="geometry"/>
                </mxCell>
                <mxCell id="uvHnYzWHBnzQ2yUbMlZ--3" value="" style="endArrow=classic;html=1;rounded=0;" parent="dxEq_eG8Xxh_2Hl3lJVE-1" edge="1">
                    <mxGeometry width="50" height="50" relative="1" as="geometry">
                        <mxPoint x="-30.000000000000227" y="320" as="sourcePoint"/>
                        <mxPoint x="109.99999999999977" y="160" as="targetPoint"/>
                    </mxGeometry>
                </mxCell>
                <mxCell id="uvHnYzWHBnzQ2yUbMlZ--4" value="" style="endArrow=classic;html=1;rounded=0;" parent="dxEq_eG8Xxh_2Hl3lJVE-1" edge="1">
                    <mxGeometry width="50" height="50" relative="1" as="geometry">
                        <mxPoint x="-30.000000000000227" y="320" as="sourcePoint"/>
                        <mxPoint x="109.99999999999977" y="480" as="targetPoint"/>
                    </mxGeometry>
                </mxCell>
                <mxCell id="uvHnYzWHBnzQ2yUbMlZ--5" value="「店舗情報」&lt;br&gt;を押下" style="text;html=1;strokeColor=none;fillColor=none;align=center;verticalAlign=middle;whiteSpace=wrap;rounded=0;" parent="dxEq_eG8Xxh_2Hl3lJVE-1" vertex="1">
                    <mxGeometry x="270" y="120" width="90" height="30" as="geometry"/>
                </mxCell>
                <mxCell id="uvHnYzWHBnzQ2yUbMlZ--6" value="" style="endArrow=classic;html=1;rounded=0;" parent="dxEq_eG8Xxh_2Hl3lJVE-1" edge="1">
                    <mxGeometry width="50" height="50" relative="1" as="geometry">
                        <mxPoint x="-30.000000000000227" y="320" as="sourcePoint"/>
                        <mxPoint x="109.99999999999977" y="320" as="targetPoint"/>
                    </mxGeometry>
                </mxCell>
                <mxCell id="uvHnYzWHBnzQ2yUbMlZ--7" value="正規社員&lt;br&gt;非正規社員" style="shape=umlActor;verticalLabelPosition=bottom;verticalAlign=top;html=1;" parent="dxEq_eG8Xxh_2Hl3lJVE-1" vertex="1">
                    <mxGeometry x="-70" y="280" width="30" height="60" as="geometry"/>
                </mxCell>
                <mxCell id="uvHnYzWHBnzQ2yUbMlZ--8" value="店舗情報&lt;br&gt;を取得する" style="ellipse;shape=umlControl;whiteSpace=wrap;html=1;fillColor=#f8cecc;strokeColor=#b85450;" parent="dxEq_eG8Xxh_2Hl3lJVE-1" vertex="1">
                    <mxGeometry x="414" y="120" width="70" height="80" as="geometry"/>
                </mxCell>
                <mxCell id="uvHnYzWHBnzQ2yUbMlZ--9" value="表示する" style="ellipse;shape=umlControl;whiteSpace=wrap;html=1;fillColor=#f8cecc;strokeColor=#b85450;" parent="dxEq_eG8Xxh_2Hl3lJVE-1" vertex="1">
                    <mxGeometry x="414" y="280" width="70" height="80" as="geometry"/>
                </mxCell>
                <mxCell id="uvHnYzWHBnzQ2yUbMlZ--10" value="" style="endArrow=classic;html=1;rounded=0;" parent="dxEq_eG8Xxh_2Hl3lJVE-1" edge="1">
                    <mxGeometry width="50" height="50" relative="1" as="geometry">
                        <mxPoint x="239.99999999999977" y="160" as="sourcePoint"/>
                        <mxPoint x="400" y="160" as="targetPoint"/>
                    </mxGeometry>
                </mxCell>
                <mxCell id="uvHnYzWHBnzQ2yUbMlZ--12" value="" style="endArrow=classic;html=1;rounded=0;" parent="dxEq_eG8Xxh_2Hl3lJVE-1" edge="1">
                    <mxGeometry width="50" height="50" relative="1" as="geometry">
                        <mxPoint x="400" y="330" as="sourcePoint"/>
                        <mxPoint x="239.99999999999977" y="480" as="targetPoint"/>
                    </mxGeometry>
                </mxCell>
                <mxCell id="uvHnYzWHBnzQ2yUbMlZ--13" value="店舗情報" style="ellipse;shape=umlEntity;whiteSpace=wrap;html=1;fillColor=#d5e8d4;strokeColor=#82b366;" parent="dxEq_eG8Xxh_2Hl3lJVE-1" vertex="1">
                    <mxGeometry x="640" y="200" width="80" height="80" as="geometry"/>
                </mxCell>
                <mxCell id="uvHnYzWHBnzQ2yUbMlZ--14" value="" style="endArrow=classic;html=1;rounded=0;" parent="dxEq_eG8Xxh_2Hl3lJVE-1" edge="1">
                    <mxGeometry width="50" height="50" relative="1" as="geometry">
                        <mxPoint x="500" y="160" as="sourcePoint"/>
                        <mxPoint x="630" y="240" as="targetPoint"/>
                    </mxGeometry>
                </mxCell>
                <mxCell id="uvHnYzWHBnzQ2yUbMlZ--15" value="" style="endArrow=classic;html=1;rounded=0;" parent="dxEq_eG8Xxh_2Hl3lJVE-1" edge="1">
                    <mxGeometry width="50" height="50" relative="1" as="geometry">
                        <mxPoint x="630" y="250" as="sourcePoint"/>
                        <mxPoint x="500" y="320" as="targetPoint"/>
                    </mxGeometry>
                </mxCell>
                <mxCell id="Y85mXMhYF-k0RmhAlIZn-0" value="" style="endArrow=classic;startArrow=classic;html=1;rounded=0;" parent="dxEq_eG8Xxh_2Hl3lJVE-1" edge="1">
                    <mxGeometry width="50" height="50" relative="1" as="geometry">
                        <mxPoint x="240" y="320" as="sourcePoint"/>
                        <mxPoint x="400" y="320" as="targetPoint"/>
                    </mxGeometry>
                </mxCell>
            </root>
        </mxGraphModel>
    </diagram>
    <diagram id="q7J2tqKcjkb_hwts1HtD" name="勤務店舗状況管理">
        <mxGraphModel dx="1591" dy="339" grid="1" gridSize="10" guides="1" tooltips="1" connect="1" arrows="1" fold="1" page="1" pageScale="1" pageWidth="827" pageHeight="1169" math="0" shadow="0">
            <root>
                <mxCell id="uPCTpEF2r6n-lkYG-dxw-0"/>
                <mxCell id="uPCTpEF2r6n-lkYG-dxw-1" style="locked=1;" parent="uPCTpEF2r6n-lkYG-dxw-0"/>
                <mxCell id="6tV9xsz2oFO4HKePDE_--0" value="正規社員&lt;br&gt;非正規社員" style="shape=umlActor;verticalLabelPosition=bottom;verticalAlign=top;html=1;" parent="uPCTpEF2r6n-lkYG-dxw-1" vertex="1">
                    <mxGeometry x="-70" y="280" width="30" height="60" as="geometry"/>
                </mxCell>
                <mxCell id="6tV9xsz2oFO4HKePDE_--1" value="ログイン済&lt;br&gt;ホーム画面" style="shape=umlBoundary;whiteSpace=wrap;html=1;fillColor=#dae8fc;strokeColor=#6c8ebf;" parent="uPCTpEF2r6n-lkYG-dxw-1" vertex="1">
                    <mxGeometry x="120" y="120" width="100" height="80" as="geometry"/>
                </mxCell>
                <mxCell id="6tV9xsz2oFO4HKePDE_--2" value="勤務店舗状況&lt;br&gt;画面" style="shape=umlBoundary;whiteSpace=wrap;html=1;fillColor=#dae8fc;strokeColor=#6c8ebf;" parent="uPCTpEF2r6n-lkYG-dxw-1" vertex="1">
                    <mxGeometry x="120" y="280" width="100" height="80" as="geometry"/>
                </mxCell>
                <mxCell id="6tV9xsz2oFO4HKePDE_--4" value="" style="endArrow=classic;html=1;rounded=0;" parent="uPCTpEF2r6n-lkYG-dxw-1" edge="1">
                    <mxGeometry width="50" height="50" relative="1" as="geometry">
                        <mxPoint x="-30.000000000000227" y="320" as="sourcePoint"/>
                        <mxPoint x="109.99999999999977" y="160" as="targetPoint"/>
                    </mxGeometry>
                </mxCell>
                <mxCell id="6tV9xsz2oFO4HKePDE_--6" value="「勤務店舗状況」&lt;br&gt;を押下" style="text;html=1;strokeColor=none;fillColor=none;align=center;verticalAlign=middle;whiteSpace=wrap;rounded=0;" parent="uPCTpEF2r6n-lkYG-dxw-1" vertex="1">
                    <mxGeometry x="250" y="130" width="150" height="30" as="geometry"/>
                </mxCell>
                <mxCell id="6tV9xsz2oFO4HKePDE_--7" value="勤務店舗&lt;br&gt;状況を&lt;br&gt;取得する" style="ellipse;shape=umlControl;whiteSpace=wrap;html=1;fillColor=#f8cecc;strokeColor=#b85450;" parent="uPCTpEF2r6n-lkYG-dxw-1" vertex="1">
                    <mxGeometry x="414" y="120" width="70" height="80" as="geometry"/>
                </mxCell>
                <mxCell id="6tV9xsz2oFO4HKePDE_--8" value="表示する" style="ellipse;shape=umlControl;whiteSpace=wrap;html=1;fillColor=#f8cecc;strokeColor=#b85450;" parent="uPCTpEF2r6n-lkYG-dxw-1" vertex="1">
                    <mxGeometry x="414" y="280" width="70" height="80" as="geometry"/>
                </mxCell>
                <mxCell id="6tV9xsz2oFO4HKePDE_--9" value="更新する" style="ellipse;shape=umlControl;whiteSpace=wrap;html=1;fillColor=#f8cecc;strokeColor=#b85450;" parent="uPCTpEF2r6n-lkYG-dxw-1" vertex="1">
                    <mxGeometry x="414" y="440" width="70" height="80" as="geometry"/>
                </mxCell>
                <mxCell id="6tV9xsz2oFO4HKePDE_--10" value="" style="endArrow=classic;html=1;rounded=0;startArrow=none;startFill=0;" parent="uPCTpEF2r6n-lkYG-dxw-1" edge="1">
                    <mxGeometry width="50" height="50" relative="1" as="geometry">
                        <mxPoint x="239.99999999999977" y="160" as="sourcePoint"/>
                        <mxPoint x="400" y="160" as="targetPoint"/>
                    </mxGeometry>
                </mxCell>
                <mxCell id="6tV9xsz2oFO4HKePDE_--11" value="勤務店舗状況" style="ellipse;shape=umlEntity;whiteSpace=wrap;html=1;fillColor=#d5e8d4;strokeColor=#82b366;" parent="uPCTpEF2r6n-lkYG-dxw-1" vertex="1">
                    <mxGeometry x="640" y="200" width="80" height="80" as="geometry"/>
                </mxCell>
                <mxCell id="6tV9xsz2oFO4HKePDE_--12" value="" style="endArrow=classic;html=1;rounded=0;startArrow=classic;startFill=1;" parent="uPCTpEF2r6n-lkYG-dxw-1" edge="1">
                    <mxGeometry width="50" height="50" relative="1" as="geometry">
                        <mxPoint x="500" y="160" as="sourcePoint"/>
                        <mxPoint x="630" y="240" as="targetPoint"/>
                    </mxGeometry>
                </mxCell>
                <mxCell id="6tV9xsz2oFO4HKePDE_--13" value="" style="endArrow=classic;html=1;rounded=0;" parent="uPCTpEF2r6n-lkYG-dxw-1" edge="1">
                    <mxGeometry width="50" height="50" relative="1" as="geometry">
                        <mxPoint x="630" y="250" as="sourcePoint"/>
                        <mxPoint x="500" y="320" as="targetPoint"/>
                    </mxGeometry>
                </mxCell>
                <mxCell id="6tV9xsz2oFO4HKePDE_--17" value="" style="endArrow=classic;html=1;rounded=0;" parent="uPCTpEF2r6n-lkYG-dxw-1" edge="1">
                    <mxGeometry width="50" height="50" relative="1" as="geometry">
                        <mxPoint x="490" y="480" as="sourcePoint"/>
                        <mxPoint x="660" y="290" as="targetPoint"/>
                    </mxGeometry>
                </mxCell>
                <mxCell id="6tV9xsz2oFO4HKePDE_--19" value="" style="endArrow=classic;html=1;rounded=0;" parent="uPCTpEF2r6n-lkYG-dxw-1" edge="1">
                    <mxGeometry width="50" height="50" relative="1" as="geometry">
                        <mxPoint x="-30.000000000000227" y="320" as="sourcePoint"/>
                        <mxPoint x="109.99999999999977" y="320" as="targetPoint"/>
                    </mxGeometry>
                </mxCell>
                <mxCell id="qjsB2trq6p600Mubc1H0-0" value="" style="endArrow=classic;html=1;rounded=0;" parent="uPCTpEF2r6n-lkYG-dxw-1" edge="1">
                    <mxGeometry width="50" height="50" relative="1" as="geometry">
                        <mxPoint x="400" y="320" as="sourcePoint"/>
                        <mxPoint x="240" y="320" as="targetPoint"/>
                    </mxGeometry>
                </mxCell>
                <mxCell id="qjsB2trq6p600Mubc1H0-1" value="" style="endArrow=classic;html=1;rounded=0;" parent="uPCTpEF2r6n-lkYG-dxw-1" edge="1">
                    <mxGeometry width="50" height="50" relative="1" as="geometry">
                        <mxPoint x="240" y="330" as="sourcePoint"/>
                        <mxPoint x="400" y="480" as="targetPoint"/>
                    </mxGeometry>
                </mxCell>
                <mxCell id="qjsB2trq6p600Mubc1H0-2" value="" style="endArrow=none;html=1;rounded=0;startArrow=classic;startFill=1;endFill=0;" parent="uPCTpEF2r6n-lkYG-dxw-1" edge="1">
                    <mxGeometry width="50" height="50" relative="1" as="geometry">
                        <mxPoint x="240" y="170" as="sourcePoint"/>
                        <mxPoint x="400" y="310" as="targetPoint"/>
                    </mxGeometry>
                </mxCell>
            </root>
        </mxGraphModel>
    </diagram>
    <diagram id="u6uAz6le20SeR2MsST6_" name="*従業員情報管理_登録">
        <mxGraphModel dx="1591" dy="339" grid="1" gridSize="10" guides="1" tooltips="1" connect="1" arrows="1" fold="1" page="1" pageScale="1" pageWidth="827" pageHeight="1169" math="0" shadow="0">
            <root>
                <mxCell id="iILXsB8xfi0MmqsRtAAt-0"/>
                <mxCell id="iILXsB8xfi0MmqsRtAAt-1" parent="iILXsB8xfi0MmqsRtAAt-0"/>
                <mxCell id="iVV9sFGLmm4cfFzs4gUg-1" value="ログイン済&lt;br&gt;ホーム画面" style="shape=umlBoundary;whiteSpace=wrap;html=1;fillColor=#dae8fc;strokeColor=#6c8ebf;" parent="iILXsB8xfi0MmqsRtAAt-1" vertex="1">
                    <mxGeometry x="120" y="40" width="100" height="80" as="geometry"/>
                </mxCell>
                <mxCell id="iVV9sFGLmm4cfFzs4gUg-2" value="従業員情報&lt;br&gt;一覧画面" style="shape=umlBoundary;whiteSpace=wrap;html=1;fillColor=#dae8fc;strokeColor=#6c8ebf;" parent="iILXsB8xfi0MmqsRtAAt-1" vertex="1">
                    <mxGeometry x="120" y="160" width="100" height="80" as="geometry"/>
                </mxCell>
                <mxCell id="iVV9sFGLmm4cfFzs4gUg-4" value="従業員情報&lt;br&gt;を取得する" style="ellipse;shape=umlControl;whiteSpace=wrap;html=1;fillColor=#f8cecc;strokeColor=#b85450;" parent="iILXsB8xfi0MmqsRtAAt-1" vertex="1">
                    <mxGeometry x="420" y="40" width="70" height="80" as="geometry"/>
                </mxCell>
                <mxCell id="iVV9sFGLmm4cfFzs4gUg-10" value="" style="endArrow=classic;html=1;rounded=0;exitX=1;exitY=0.5;exitDx=0;exitDy=0;exitPerimeter=0;entryX=-0.019;entryY=0.489;entryDx=0;entryDy=0;entryPerimeter=0;" parent="iILXsB8xfi0MmqsRtAAt-1" source="iVV9sFGLmm4cfFzs4gUg-1" target="iVV9sFGLmm4cfFzs4gUg-4" edge="1">
                    <mxGeometry width="50" height="50" relative="1" as="geometry">
                        <mxPoint x="240" y="80" as="sourcePoint"/>
                        <mxPoint x="400" y="80" as="targetPoint"/>
                    </mxGeometry>
                </mxCell>
                <mxCell id="iVV9sFGLmm4cfFzs4gUg-13" value="「従業員情報（マスタ）」&lt;br&gt;を押下" style="text;html=1;strokeColor=none;fillColor=none;align=center;verticalAlign=middle;whiteSpace=wrap;rounded=0;" parent="iILXsB8xfi0MmqsRtAAt-1" vertex="1">
                    <mxGeometry x="230" y="40" width="160" height="30" as="geometry"/>
                </mxCell>
                <mxCell id="Xx0VXdKNaW_3ktH_dBKt-0" value="管理者&lt;br&gt;正規社員" style="shape=umlActor;verticalLabelPosition=bottom;verticalAlign=top;html=1;" parent="iILXsB8xfi0MmqsRtAAt-1" vertex="1">
                    <mxGeometry x="-40" y="170" width="30" height="60" as="geometry"/>
                </mxCell>
                <mxCell id="Xx0VXdKNaW_3ktH_dBKt-1" value="新規登録&lt;br&gt;画面" style="shape=umlBoundary;whiteSpace=wrap;html=1;fillColor=#dae8fc;strokeColor=#6c8ebf;" parent="iILXsB8xfi0MmqsRtAAt-1" vertex="1">
                    <mxGeometry x="120" y="280" width="100" height="80" as="geometry"/>
                </mxCell>
                <mxCell id="H5UDgFJsVJjFs0eg-Qf4-0" value="従業員情報" style="ellipse;shape=umlEntity;whiteSpace=wrap;html=1;fillColor=#d5e8d4;strokeColor=#82b366;" parent="iILXsB8xfi0MmqsRtAAt-1" vertex="1">
                    <mxGeometry x="710" y="160" width="80" height="80" as="geometry"/>
                </mxCell>
                <mxCell id="H5UDgFJsVJjFs0eg-Qf4-1" value="" style="endArrow=classic;html=1;rounded=0;exitX=1;exitY=0.5;exitDx=0;exitDy=0;exitPerimeter=0;startArrow=classic;startFill=1;" parent="iILXsB8xfi0MmqsRtAAt-1" edge="1">
                    <mxGeometry width="50" height="50" relative="1" as="geometry">
                        <mxPoint x="511.33" y="79.88" as="sourcePoint"/>
                        <mxPoint x="690" y="200" as="targetPoint"/>
                    </mxGeometry>
                </mxCell>
                <mxCell id="H5UDgFJsVJjFs0eg-Qf4-2" value="" style="endArrow=none;html=1;rounded=0;startArrow=classic;startFill=1;endFill=0;" parent="iILXsB8xfi0MmqsRtAAt-1" edge="1">
                    <mxGeometry width="50" height="50" relative="1" as="geometry">
                        <mxPoint x="230" y="200" as="sourcePoint"/>
                        <mxPoint x="410" y="90" as="targetPoint"/>
                    </mxGeometry>
                </mxCell>
                <mxCell id="H5UDgFJsVJjFs0eg-Qf4-3" value="表示する" style="ellipse;shape=umlControl;whiteSpace=wrap;html=1;fillColor=#f8cecc;strokeColor=#b85450;" parent="iILXsB8xfi0MmqsRtAAt-1" vertex="1">
                    <mxGeometry x="420" y="200" width="70" height="80" as="geometry"/>
                </mxCell>
                <mxCell id="H5UDgFJsVJjFs0eg-Qf4-4" value="" style="endArrow=none;html=1;rounded=0;startArrow=classic;startFill=1;endFill=0;" parent="iILXsB8xfi0MmqsRtAAt-1" edge="1">
                    <mxGeometry width="50" height="50" relative="1" as="geometry">
                        <mxPoint x="410" y="240" as="sourcePoint"/>
                        <mxPoint x="240" y="200" as="targetPoint"/>
                    </mxGeometry>
                </mxCell>
                <mxCell id="H5UDgFJsVJjFs0eg-Qf4-5" value="" style="endArrow=none;html=1;rounded=0;startArrow=classic;startFill=1;endFill=0;" parent="iILXsB8xfi0MmqsRtAAt-1" edge="1">
                    <mxGeometry width="50" height="50" relative="1" as="geometry">
                        <mxPoint x="240" y="320" as="sourcePoint"/>
                        <mxPoint x="410" y="250" as="targetPoint"/>
                    </mxGeometry>
                </mxCell>
                <mxCell id="H5UDgFJsVJjFs0eg-Qf4-6" value="入力データ検証" style="ellipse;shape=umlControl;whiteSpace=wrap;html=1;fillColor=#f8cecc;strokeColor=#b85450;" parent="iILXsB8xfi0MmqsRtAAt-1" vertex="1">
                    <mxGeometry x="420" y="360" width="70" height="80" as="geometry"/>
                </mxCell>
                <mxCell id="H5UDgFJsVJjFs0eg-Qf4-7" value="" style="endArrow=classic;html=1;rounded=0;startArrow=classic;startFill=1;endFill=1;" parent="iILXsB8xfi0MmqsRtAAt-1" edge="1">
                    <mxGeometry width="50" height="50" relative="1" as="geometry">
                        <mxPoint x="400" y="400" as="sourcePoint"/>
                        <mxPoint x="240" y="330" as="targetPoint"/>
                    </mxGeometry>
                </mxCell>
                <mxCell id="H5UDgFJsVJjFs0eg-Qf4-8" value="登録する" style="ellipse;shape=umlControl;whiteSpace=wrap;html=1;fillColor=#f8cecc;strokeColor=#b85450;" parent="iILXsB8xfi0MmqsRtAAt-1" vertex="1">
                    <mxGeometry x="420" y="520" width="70" height="80" as="geometry"/>
                </mxCell>
                <mxCell id="H5UDgFJsVJjFs0eg-Qf4-9" value="" style="endArrow=none;html=1;rounded=0;startArrow=classic;startFill=1;endFill=0;" parent="iILXsB8xfi0MmqsRtAAt-1" source="H5UDgFJsVJjFs0eg-Qf4-8" edge="1">
                    <mxGeometry width="50" height="50" relative="1" as="geometry">
                        <mxPoint x="410" y="410" as="sourcePoint"/>
                        <mxPoint x="455" y="450" as="targetPoint"/>
                    </mxGeometry>
                </mxCell>
                <mxCell id="H5UDgFJsVJjFs0eg-Qf4-10" value="" style="endArrow=none;html=1;rounded=0;startArrow=classic;startFill=1;endFill=0;" parent="iILXsB8xfi0MmqsRtAAt-1" edge="1">
                    <mxGeometry width="50" height="50" relative="1" as="geometry">
                        <mxPoint x="690" y="210" as="sourcePoint"/>
                        <mxPoint x="500" y="560" as="targetPoint"/>
                    </mxGeometry>
                </mxCell>
                <mxCell id="H5UDgFJsVJjFs0eg-Qf4-11" value="データ入力" style="text;html=1;strokeColor=none;fillColor=none;align=center;verticalAlign=middle;whiteSpace=wrap;rounded=0;" parent="iILXsB8xfi0MmqsRtAAt-1" vertex="1">
                    <mxGeometry x="290" y="350" width="160" height="30" as="geometry"/>
                </mxCell>
                <mxCell id="H5UDgFJsVJjFs0eg-Qf4-12" value="「新規登録」&lt;br&gt;を押下" style="text;html=1;strokeColor=none;fillColor=none;align=center;verticalAlign=middle;whiteSpace=wrap;rounded=0;" parent="iILXsB8xfi0MmqsRtAAt-1" vertex="1">
                    <mxGeometry x="270" y="185" width="160" height="30" as="geometry"/>
                </mxCell>
                <mxCell id="H5UDgFJsVJjFs0eg-Qf4-13" value="入力エラー時は&lt;br&gt;エラーメッセージを表示" style="text;html=1;strokeColor=none;fillColor=none;align=center;verticalAlign=middle;whiteSpace=wrap;rounded=0;" parent="iILXsB8xfi0MmqsRtAAt-1" vertex="1">
                    <mxGeometry x="280" y="410" width="160" height="30" as="geometry"/>
                </mxCell>
                <mxCell id="51a1IdMckLsOIh7_EKAz-0" value="登録完了画面" style="shape=umlBoundary;whiteSpace=wrap;html=1;fillColor=#dae8fc;strokeColor=#6c8ebf;" parent="iILXsB8xfi0MmqsRtAAt-1" vertex="1">
                    <mxGeometry x="120" y="480" width="100" height="80" as="geometry"/>
                </mxCell>
                <mxCell id="51a1IdMckLsOIh7_EKAz-3" value="" style="endArrow=none;html=1;rounded=0;startArrow=classic;startFill=1;endFill=0;jumpStyle=arc;" parent="iILXsB8xfi0MmqsRtAAt-1" edge="1">
                    <mxGeometry width="50" height="50" relative="1" as="geometry">
                        <mxPoint x="240" y="520" as="sourcePoint"/>
                        <mxPoint x="440" y="130" as="targetPoint"/>
                    </mxGeometry>
                </mxCell>
                <mxCell id="1CEBwNOvob6zrcQ_kdvh-0" value="" style="endArrow=classic;html=1;rounded=0;" parent="iILXsB8xfi0MmqsRtAAt-1" edge="1">
                    <mxGeometry width="50" height="50" relative="1" as="geometry">
                        <mxPoint y="200" as="sourcePoint"/>
                        <mxPoint x="110" y="80" as="targetPoint"/>
                    </mxGeometry>
                </mxCell>
                <mxCell id="1CEBwNOvob6zrcQ_kdvh-2" value="" style="endArrow=classic;html=1;rounded=0;" parent="iILXsB8xfi0MmqsRtAAt-1" edge="1">
                    <mxGeometry width="50" height="50" relative="1" as="geometry">
                        <mxPoint y="200" as="sourcePoint"/>
                        <mxPoint x="110" y="200" as="targetPoint"/>
                    </mxGeometry>
                </mxCell>
                <mxCell id="1CEBwNOvob6zrcQ_kdvh-3" value="" style="endArrow=classic;html=1;rounded=0;" parent="iILXsB8xfi0MmqsRtAAt-1" edge="1">
                    <mxGeometry width="50" height="50" relative="1" as="geometry">
                        <mxPoint y="200" as="sourcePoint"/>
                        <mxPoint x="110" y="320" as="targetPoint"/>
                    </mxGeometry>
                </mxCell>
                <mxCell id="1CEBwNOvob6zrcQ_kdvh-4" value="" style="endArrow=classic;html=1;rounded=0;" parent="iILXsB8xfi0MmqsRtAAt-1" edge="1">
                    <mxGeometry width="50" height="50" relative="1" as="geometry">
                        <mxPoint y="200" as="sourcePoint"/>
                        <mxPoint x="110" y="520" as="targetPoint"/>
                    </mxGeometry>
                </mxCell>
            </root>
        </mxGraphModel>
    </diagram>
    <diagram id="iKOnc4zgBir_UfPWP5Ad" name="*従業員情報管理_参照">
        <mxGraphModel dx="1591" dy="339" grid="1" gridSize="10" guides="1" tooltips="1" connect="1" arrows="1" fold="1" page="1" pageScale="1" pageWidth="827" pageHeight="1169" math="0" shadow="0">
            <root>
                <mxCell id="RgFA7SEQGFGJVd3Gjxhv-0"/>
                <mxCell id="RgFA7SEQGFGJVd3Gjxhv-1" parent="RgFA7SEQGFGJVd3Gjxhv-0"/>
                <mxCell id="b9FObSZ7lppENx-9p5U6-0" value="管理者&lt;br&gt;正規社員" style="shape=umlActor;verticalLabelPosition=bottom;verticalAlign=top;html=1;" parent="RgFA7SEQGFGJVd3Gjxhv-1" vertex="1">
                    <mxGeometry x="-70" y="160" width="30" height="60" as="geometry"/>
                </mxCell>
                <mxCell id="b9FObSZ7lppENx-9p5U6-1" value="ログイン済&lt;br&gt;ホーム画面" style="shape=umlBoundary;whiteSpace=wrap;html=1;fillColor=#dae8fc;strokeColor=#6c8ebf;" parent="RgFA7SEQGFGJVd3Gjxhv-1" vertex="1">
                    <mxGeometry x="120" y="40" width="100" height="80" as="geometry"/>
                </mxCell>
                <mxCell id="b9FObSZ7lppENx-9p5U6-2" value="従業員情報&lt;br&gt;一覧画面" style="shape=umlBoundary;whiteSpace=wrap;html=1;fillColor=#dae8fc;strokeColor=#6c8ebf;" parent="RgFA7SEQGFGJVd3Gjxhv-1" vertex="1">
                    <mxGeometry x="120" y="160" width="100" height="80" as="geometry"/>
                </mxCell>
                <mxCell id="b9FObSZ7lppENx-9p5U6-4" value="従業員情報&lt;br&gt;を取得する" style="ellipse;shape=umlControl;whiteSpace=wrap;html=1;fillColor=#f8cecc;strokeColor=#b85450;" parent="RgFA7SEQGFGJVd3Gjxhv-1" vertex="1">
                    <mxGeometry x="420" y="40" width="70" height="80" as="geometry"/>
                </mxCell>
                <mxCell id="b9FObSZ7lppENx-9p5U6-5" value="従業員情報" style="ellipse;shape=umlEntity;whiteSpace=wrap;html=1;fillColor=#d5e8d4;strokeColor=#82b366;" parent="RgFA7SEQGFGJVd3Gjxhv-1" vertex="1">
                    <mxGeometry x="640" y="120" width="80" height="80" as="geometry"/>
                </mxCell>
                <mxCell id="b9FObSZ7lppENx-9p5U6-6" value="表示する" style="ellipse;shape=umlControl;whiteSpace=wrap;html=1;fillColor=#f8cecc;strokeColor=#b85450;" parent="RgFA7SEQGFGJVd3Gjxhv-1" vertex="1">
                    <mxGeometry x="420" y="210" width="70" height="80" as="geometry"/>
                </mxCell>
                <mxCell id="b9FObSZ7lppENx-9p5U6-8" value="詳細画面" style="shape=umlBoundary;whiteSpace=wrap;html=1;fillColor=#dae8fc;strokeColor=#6c8ebf;" parent="RgFA7SEQGFGJVd3Gjxhv-1" vertex="1">
                    <mxGeometry x="120" y="280" width="100" height="80" as="geometry"/>
                </mxCell>
                <mxCell id="b9FObSZ7lppENx-9p5U6-10" value="" style="endArrow=classic;html=1;rounded=0;exitX=1;exitY=0.5;exitDx=0;exitDy=0;exitPerimeter=0;entryX=-0.019;entryY=0.489;entryDx=0;entryDy=0;entryPerimeter=0;" parent="RgFA7SEQGFGJVd3Gjxhv-1" source="b9FObSZ7lppENx-9p5U6-1" target="b9FObSZ7lppENx-9p5U6-4" edge="1">
                    <mxGeometry width="50" height="50" relative="1" as="geometry">
                        <mxPoint x="240" y="80" as="sourcePoint"/>
                        <mxPoint x="400" y="80" as="targetPoint"/>
                    </mxGeometry>
                </mxCell>
                <mxCell id="b9FObSZ7lppENx-9p5U6-13" value="「従業員情報（マスタ）」&lt;br&gt;を押下" style="text;html=1;strokeColor=none;fillColor=none;align=center;verticalAlign=middle;whiteSpace=wrap;rounded=0;" parent="RgFA7SEQGFGJVd3Gjxhv-1" vertex="1">
                    <mxGeometry x="230" y="40" width="160" height="30" as="geometry"/>
                </mxCell>
                <mxCell id="iBF_0NDYl78pn7MWiQbW-0" value="" style="endArrow=classic;html=1;rounded=0;" parent="RgFA7SEQGFGJVd3Gjxhv-1" edge="1">
                    <mxGeometry width="50" height="50" relative="1" as="geometry">
                        <mxPoint x="410" y="90" as="sourcePoint"/>
                        <mxPoint x="240" y="200" as="targetPoint"/>
                    </mxGeometry>
                </mxCell>
                <mxCell id="iBF_0NDYl78pn7MWiQbW-1" value="" style="endArrow=classic;html=1;rounded=0;" parent="RgFA7SEQGFGJVd3Gjxhv-1" edge="1">
                    <mxGeometry width="50" height="50" relative="1" as="geometry">
                        <mxPoint x="240" y="210" as="sourcePoint"/>
                        <mxPoint x="410" y="260" as="targetPoint"/>
                    </mxGeometry>
                </mxCell>
                <mxCell id="iBF_0NDYl78pn7MWiQbW-2" value="" style="endArrow=classic;html=1;rounded=0;" parent="RgFA7SEQGFGJVd3Gjxhv-1" edge="1">
                    <mxGeometry width="50" height="50" relative="1" as="geometry">
                        <mxPoint x="400" y="270" as="sourcePoint"/>
                        <mxPoint x="240" y="320" as="targetPoint"/>
                    </mxGeometry>
                </mxCell>
                <mxCell id="iBF_0NDYl78pn7MWiQbW-3" value="" style="endArrow=classic;html=1;rounded=0;startArrow=classic;startFill=1;" parent="RgFA7SEQGFGJVd3Gjxhv-1" edge="1">
                    <mxGeometry width="50" height="50" relative="1" as="geometry">
                        <mxPoint x="500" y="80" as="sourcePoint"/>
                        <mxPoint x="620" y="160" as="targetPoint"/>
                    </mxGeometry>
                </mxCell>
                <mxCell id="iSKmAx768jZhNJ01NNSh-0" value="" style="endArrow=classic;html=1;rounded=0;" parent="RgFA7SEQGFGJVd3Gjxhv-1" edge="1">
                    <mxGeometry width="50" height="50" relative="1" as="geometry">
                        <mxPoint x="-30" y="200" as="sourcePoint"/>
                        <mxPoint x="110" y="80" as="targetPoint"/>
                    </mxGeometry>
                </mxCell>
                <mxCell id="iSKmAx768jZhNJ01NNSh-1" value="" style="endArrow=classic;html=1;rounded=0;" parent="RgFA7SEQGFGJVd3Gjxhv-1" edge="1">
                    <mxGeometry width="50" height="50" relative="1" as="geometry">
                        <mxPoint x="-30" y="200" as="sourcePoint"/>
                        <mxPoint x="110" y="200" as="targetPoint"/>
                    </mxGeometry>
                </mxCell>
                <mxCell id="iSKmAx768jZhNJ01NNSh-2" value="" style="endArrow=classic;html=1;rounded=0;" parent="RgFA7SEQGFGJVd3Gjxhv-1" edge="1">
                    <mxGeometry width="50" height="50" relative="1" as="geometry">
                        <mxPoint x="-30" y="200" as="sourcePoint"/>
                        <mxPoint x="110" y="320" as="targetPoint"/>
                    </mxGeometry>
                </mxCell>
            </root>
        </mxGraphModel>
    </diagram>
    <diagram id="IFMydM7Jh42T5aiGVzNp" name="*従業員情報管理_編集">
        <mxGraphModel dx="1591" dy="339" grid="1" gridSize="10" guides="1" tooltips="1" connect="1" arrows="1" fold="1" page="1" pageScale="1" pageWidth="827" pageHeight="1169" math="0" shadow="0">
            <root>
                <mxCell id="ExiGSukkad4t69l5Ue1t-0"/>
                <mxCell id="ExiGSukkad4t69l5Ue1t-1" parent="ExiGSukkad4t69l5Ue1t-0"/>
                <mxCell id="zMkAjTtJmvqBAtNY7vAl-0" value="管理者&lt;br&gt;正規社員" style="shape=umlActor;verticalLabelPosition=bottom;verticalAlign=top;html=1;" parent="ExiGSukkad4t69l5Ue1t-1" vertex="1">
                    <mxGeometry x="-70" y="160" width="30" height="60" as="geometry"/>
                </mxCell>
                <mxCell id="zMkAjTtJmvqBAtNY7vAl-1" value="ログイン済&lt;br&gt;ホーム画面" style="shape=umlBoundary;whiteSpace=wrap;html=1;fillColor=#dae8fc;strokeColor=#6c8ebf;" parent="ExiGSukkad4t69l5Ue1t-1" vertex="1">
                    <mxGeometry x="120" y="40" width="100" height="80" as="geometry"/>
                </mxCell>
                <mxCell id="zMkAjTtJmvqBAtNY7vAl-2" value="従業員情報&lt;br&gt;一覧画面" style="shape=umlBoundary;whiteSpace=wrap;html=1;fillColor=#dae8fc;strokeColor=#6c8ebf;" parent="ExiGSukkad4t69l5Ue1t-1" vertex="1">
                    <mxGeometry x="120" y="160" width="100" height="80" as="geometry"/>
                </mxCell>
                <mxCell id="zMkAjTtJmvqBAtNY7vAl-3" value="従業員情報&lt;br&gt;を取得する" style="ellipse;shape=umlControl;whiteSpace=wrap;html=1;fillColor=#f8cecc;strokeColor=#b85450;" parent="ExiGSukkad4t69l5Ue1t-1" vertex="1">
                    <mxGeometry x="420" y="40" width="70" height="80" as="geometry"/>
                </mxCell>
                <mxCell id="zMkAjTtJmvqBAtNY7vAl-4" value="従業員情報" style="ellipse;shape=umlEntity;whiteSpace=wrap;html=1;fillColor=#d5e8d4;strokeColor=#82b366;" parent="ExiGSukkad4t69l5Ue1t-1" vertex="1">
                    <mxGeometry x="640" y="120" width="80" height="80" as="geometry"/>
                </mxCell>
                <mxCell id="zMkAjTtJmvqBAtNY7vAl-5" value="表示する" style="ellipse;shape=umlControl;whiteSpace=wrap;html=1;fillColor=#f8cecc;strokeColor=#b85450;" parent="ExiGSukkad4t69l5Ue1t-1" vertex="1">
                    <mxGeometry x="420" y="210" width="70" height="80" as="geometry"/>
                </mxCell>
                <mxCell id="zMkAjTtJmvqBAtNY7vAl-6" value="詳細画面" style="shape=umlBoundary;whiteSpace=wrap;html=1;fillColor=#dae8fc;strokeColor=#6c8ebf;" parent="ExiGSukkad4t69l5Ue1t-1" vertex="1">
                    <mxGeometry x="120" y="280" width="100" height="80" as="geometry"/>
                </mxCell>
                <mxCell id="zMkAjTtJmvqBAtNY7vAl-7" value="" style="endArrow=classic;html=1;rounded=0;exitX=1;exitY=0.5;exitDx=0;exitDy=0;exitPerimeter=0;entryX=-0.019;entryY=0.489;entryDx=0;entryDy=0;entryPerimeter=0;" parent="ExiGSukkad4t69l5Ue1t-1" source="zMkAjTtJmvqBAtNY7vAl-1" target="zMkAjTtJmvqBAtNY7vAl-3" edge="1">
                    <mxGeometry width="50" height="50" relative="1" as="geometry">
                        <mxPoint x="240" y="80" as="sourcePoint"/>
                        <mxPoint x="400" y="80" as="targetPoint"/>
                    </mxGeometry>
                </mxCell>
                <mxCell id="zMkAjTtJmvqBAtNY7vAl-8" value="「従業員情報（マスタ）」&lt;br&gt;を押下" style="text;html=1;strokeColor=none;fillColor=none;align=center;verticalAlign=middle;whiteSpace=wrap;rounded=0;" parent="ExiGSukkad4t69l5Ue1t-1" vertex="1">
                    <mxGeometry x="230" y="40" width="160" height="30" as="geometry"/>
                </mxCell>
                <mxCell id="zMkAjTtJmvqBAtNY7vAl-9" value="" style="endArrow=classic;html=1;rounded=0;" parent="ExiGSukkad4t69l5Ue1t-1" edge="1">
                    <mxGeometry width="50" height="50" relative="1" as="geometry">
                        <mxPoint x="410" y="90" as="sourcePoint"/>
                        <mxPoint x="240" y="199.9999999999999" as="targetPoint"/>
                    </mxGeometry>
                </mxCell>
                <mxCell id="zMkAjTtJmvqBAtNY7vAl-10" value="" style="endArrow=classic;html=1;rounded=0;" parent="ExiGSukkad4t69l5Ue1t-1" edge="1">
                    <mxGeometry width="50" height="50" relative="1" as="geometry">
                        <mxPoint x="240" y="209.9999999999999" as="sourcePoint"/>
                        <mxPoint x="410" y="259.9999999999999" as="targetPoint"/>
                    </mxGeometry>
                </mxCell>
                <mxCell id="zMkAjTtJmvqBAtNY7vAl-11" value="" style="endArrow=classic;html=1;rounded=0;startArrow=classic;startFill=1;" parent="ExiGSukkad4t69l5Ue1t-1" edge="1">
                    <mxGeometry width="50" height="50" relative="1" as="geometry">
                        <mxPoint x="400" y="269.9999999999999" as="sourcePoint"/>
                        <mxPoint x="240" y="320" as="targetPoint"/>
                    </mxGeometry>
                </mxCell>
                <mxCell id="zMkAjTtJmvqBAtNY7vAl-12" value="" style="endArrow=classic;html=1;rounded=0;startArrow=classic;startFill=1;" parent="ExiGSukkad4t69l5Ue1t-1" edge="1">
                    <mxGeometry width="50" height="50" relative="1" as="geometry">
                        <mxPoint x="500" y="80" as="sourcePoint"/>
                        <mxPoint x="620" y="159.9999999999999" as="targetPoint"/>
                    </mxGeometry>
                </mxCell>
                <mxCell id="zMkAjTtJmvqBAtNY7vAl-13" value="編集画面" style="shape=umlBoundary;whiteSpace=wrap;html=1;fillColor=#dae8fc;strokeColor=#6c8ebf;" parent="ExiGSukkad4t69l5Ue1t-1" vertex="1">
                    <mxGeometry x="120" y="400" width="100" height="80" as="geometry"/>
                </mxCell>
                <mxCell id="zMkAjTtJmvqBAtNY7vAl-14" value="" style="endArrow=classic;html=1;rounded=0;" parent="ExiGSukkad4t69l5Ue1t-1" edge="1">
                    <mxGeometry width="50" height="50" relative="1" as="geometry">
                        <mxPoint x="410" y="280" as="sourcePoint"/>
                        <mxPoint x="240" y="430" as="targetPoint"/>
                    </mxGeometry>
                </mxCell>
                <mxCell id="E24kyH1PXb0rTUBLA1sa-0" value="入力データ検証" style="ellipse;shape=umlControl;whiteSpace=wrap;html=1;fillColor=#f8cecc;strokeColor=#b85450;" parent="ExiGSukkad4t69l5Ue1t-1" vertex="1">
                    <mxGeometry x="420" y="400" width="70" height="80" as="geometry"/>
                </mxCell>
                <mxCell id="E24kyH1PXb0rTUBLA1sa-1" value="" style="endArrow=classic;html=1;rounded=0;startArrow=classic;startFill=1;" parent="ExiGSukkad4t69l5Ue1t-1" edge="1">
                    <mxGeometry width="50" height="50" relative="1" as="geometry">
                        <mxPoint x="240" y="440" as="sourcePoint"/>
                        <mxPoint x="410" y="440" as="targetPoint"/>
                    </mxGeometry>
                </mxCell>
                <mxCell id="E24kyH1PXb0rTUBLA1sa-2" value="更新する" style="ellipse;shape=umlControl;whiteSpace=wrap;html=1;fillColor=#f8cecc;strokeColor=#b85450;" parent="ExiGSukkad4t69l5Ue1t-1" vertex="1">
                    <mxGeometry x="520" y="520" width="70" height="80" as="geometry"/>
                </mxCell>
                <mxCell id="E24kyH1PXb0rTUBLA1sa-3" value="" style="endArrow=classic;html=1;rounded=0;" parent="ExiGSukkad4t69l5Ue1t-1" target="E24kyH1PXb0rTUBLA1sa-2" edge="1">
                    <mxGeometry width="50" height="50" relative="1" as="geometry">
                        <mxPoint x="490" y="490" as="sourcePoint"/>
                        <mxPoint x="250" y="440" as="targetPoint"/>
                    </mxGeometry>
                </mxCell>
                <mxCell id="E24kyH1PXb0rTUBLA1sa-4" value="" style="endArrow=classic;html=1;rounded=0;" parent="ExiGSukkad4t69l5Ue1t-1" edge="1">
                    <mxGeometry width="50" height="50" relative="1" as="geometry">
                        <mxPoint x="600" y="520" as="sourcePoint"/>
                        <mxPoint x="680" y="210" as="targetPoint"/>
                    </mxGeometry>
                </mxCell>
                <mxCell id="6O8voqG9lKXWtJjwUwCA-0" value="" style="endArrow=classic;html=1;rounded=0;" parent="ExiGSukkad4t69l5Ue1t-1" edge="1">
                    <mxGeometry width="50" height="50" relative="1" as="geometry">
                        <mxPoint x="-30" y="200" as="sourcePoint"/>
                        <mxPoint x="110" y="200" as="targetPoint"/>
                    </mxGeometry>
                </mxCell>
                <mxCell id="6O8voqG9lKXWtJjwUwCA-1" value="" style="endArrow=classic;html=1;rounded=0;" parent="ExiGSukkad4t69l5Ue1t-1" edge="1">
                    <mxGeometry width="50" height="50" relative="1" as="geometry">
                        <mxPoint x="-30" y="200" as="sourcePoint"/>
                        <mxPoint x="110" y="80" as="targetPoint"/>
                    </mxGeometry>
                </mxCell>
                <mxCell id="6O8voqG9lKXWtJjwUwCA-2" value="" style="endArrow=classic;html=1;rounded=0;" parent="ExiGSukkad4t69l5Ue1t-1" edge="1">
                    <mxGeometry width="50" height="50" relative="1" as="geometry">
                        <mxPoint x="-30" y="200" as="sourcePoint"/>
                        <mxPoint x="110" y="320" as="targetPoint"/>
                    </mxGeometry>
                </mxCell>
                <mxCell id="6O8voqG9lKXWtJjwUwCA-3" value="" style="endArrow=classic;html=1;rounded=0;" parent="ExiGSukkad4t69l5Ue1t-1" edge="1">
                    <mxGeometry width="50" height="50" relative="1" as="geometry">
                        <mxPoint x="-30" y="200" as="sourcePoint"/>
                        <mxPoint x="110" y="440" as="targetPoint"/>
                    </mxGeometry>
                </mxCell>
            </root>
        </mxGraphModel>
    </diagram>
    <diagram id="3DgiwX1BnJunymCmlgRd" name="*従業員情報管理_削除">
        <mxGraphModel dx="1591" dy="339" grid="1" gridSize="10" guides="1" tooltips="1" connect="1" arrows="1" fold="1" page="1" pageScale="1" pageWidth="827" pageHeight="1169" math="0" shadow="0">
            <root>
                <mxCell id="MctrNSa3Du8lBBgZTMPF-0"/>
                <mxCell id="MctrNSa3Du8lBBgZTMPF-1" parent="MctrNSa3Du8lBBgZTMPF-0"/>
                <mxCell id="NcAlPOHIx38x8bryd92r-0" value="正規社員" style="shape=umlActor;verticalLabelPosition=bottom;verticalAlign=top;html=1;" parent="MctrNSa3Du8lBBgZTMPF-1" vertex="1">
                    <mxGeometry x="-70" y="160" width="30" height="60" as="geometry"/>
                </mxCell>
                <mxCell id="NcAlPOHIx38x8bryd92r-1" value="ログイン済&lt;br&gt;ホーム画面" style="shape=umlBoundary;whiteSpace=wrap;html=1;fillColor=#dae8fc;strokeColor=#6c8ebf;" parent="MctrNSa3Du8lBBgZTMPF-1" vertex="1">
                    <mxGeometry x="120" y="40" width="100" height="80" as="geometry"/>
                </mxCell>
                <mxCell id="NcAlPOHIx38x8bryd92r-2" value="従業員情報&lt;br&gt;一覧画面" style="shape=umlBoundary;whiteSpace=wrap;html=1;fillColor=#dae8fc;strokeColor=#6c8ebf;" parent="MctrNSa3Du8lBBgZTMPF-1" vertex="1">
                    <mxGeometry x="120" y="160" width="100" height="80" as="geometry"/>
                </mxCell>
                <mxCell id="NcAlPOHIx38x8bryd92r-3" value="従業員情報&lt;br&gt;を取得する" style="ellipse;shape=umlControl;whiteSpace=wrap;html=1;fillColor=#f8cecc;strokeColor=#b85450;" parent="MctrNSa3Du8lBBgZTMPF-1" vertex="1">
                    <mxGeometry x="420" y="40" width="70" height="80" as="geometry"/>
                </mxCell>
                <mxCell id="NcAlPOHIx38x8bryd92r-4" value="従業員情報" style="ellipse;shape=umlEntity;whiteSpace=wrap;html=1;fillColor=#d5e8d4;strokeColor=#82b366;" parent="MctrNSa3Du8lBBgZTMPF-1" vertex="1">
                    <mxGeometry x="640" y="120" width="80" height="80" as="geometry"/>
                </mxCell>
                <mxCell id="NcAlPOHIx38x8bryd92r-5" value="表示する" style="ellipse;shape=umlControl;whiteSpace=wrap;html=1;fillColor=#f8cecc;strokeColor=#b85450;" parent="MctrNSa3Du8lBBgZTMPF-1" vertex="1">
                    <mxGeometry x="420" y="210" width="70" height="80" as="geometry"/>
                </mxCell>
                <mxCell id="NcAlPOHIx38x8bryd92r-6" value="詳細画面" style="shape=umlBoundary;whiteSpace=wrap;html=1;fillColor=#dae8fc;strokeColor=#6c8ebf;" parent="MctrNSa3Du8lBBgZTMPF-1" vertex="1">
                    <mxGeometry x="120" y="280" width="100" height="80" as="geometry"/>
                </mxCell>
                <mxCell id="NcAlPOHIx38x8bryd92r-7" value="" style="endArrow=classic;html=1;rounded=0;exitX=1;exitY=0.5;exitDx=0;exitDy=0;exitPerimeter=0;entryX=-0.019;entryY=0.489;entryDx=0;entryDy=0;entryPerimeter=0;" parent="MctrNSa3Du8lBBgZTMPF-1" source="NcAlPOHIx38x8bryd92r-1" target="NcAlPOHIx38x8bryd92r-3" edge="1">
                    <mxGeometry width="50" height="50" relative="1" as="geometry">
                        <mxPoint x="240" y="80" as="sourcePoint"/>
                        <mxPoint x="400" y="80" as="targetPoint"/>
                    </mxGeometry>
                </mxCell>
                <mxCell id="NcAlPOHIx38x8bryd92r-8" value="「従業員情報マスタ」&lt;br&gt;を押下" style="text;html=1;strokeColor=none;fillColor=none;align=center;verticalAlign=middle;whiteSpace=wrap;rounded=0;" parent="MctrNSa3Du8lBBgZTMPF-1" vertex="1">
                    <mxGeometry x="230" y="40" width="160" height="30" as="geometry"/>
                </mxCell>
                <mxCell id="NcAlPOHIx38x8bryd92r-9" value="" style="endArrow=classic;html=1;rounded=0;" parent="MctrNSa3Du8lBBgZTMPF-1" edge="1">
                    <mxGeometry width="50" height="50" relative="1" as="geometry">
                        <mxPoint x="410" y="90" as="sourcePoint"/>
                        <mxPoint x="240" y="200" as="targetPoint"/>
                    </mxGeometry>
                </mxCell>
                <mxCell id="NcAlPOHIx38x8bryd92r-10" value="" style="endArrow=classic;html=1;rounded=0;" parent="MctrNSa3Du8lBBgZTMPF-1" edge="1">
                    <mxGeometry width="50" height="50" relative="1" as="geometry">
                        <mxPoint x="240" y="210" as="sourcePoint"/>
                        <mxPoint x="410" y="260" as="targetPoint"/>
                    </mxGeometry>
                </mxCell>
                <mxCell id="NcAlPOHIx38x8bryd92r-12" value="" style="endArrow=classic;html=1;rounded=0;startArrow=classic;startFill=1;" parent="MctrNSa3Du8lBBgZTMPF-1" edge="1">
                    <mxGeometry width="50" height="50" relative="1" as="geometry">
                        <mxPoint x="500" y="80" as="sourcePoint"/>
                        <mxPoint x="620" y="159.9999999999999" as="targetPoint"/>
                    </mxGeometry>
                </mxCell>
                <mxCell id="NcAlPOHIx38x8bryd92r-17" value="削除する" style="ellipse;shape=umlControl;whiteSpace=wrap;html=1;fillColor=#f8cecc;strokeColor=#b85450;" parent="MctrNSa3Du8lBBgZTMPF-1" vertex="1">
                    <mxGeometry x="414" y="360" width="70" height="80" as="geometry"/>
                </mxCell>
                <mxCell id="NcAlPOHIx38x8bryd92r-19" value="" style="endArrow=classic;html=1;rounded=0;" parent="MctrNSa3Du8lBBgZTMPF-1" edge="1">
                    <mxGeometry width="50" height="50" relative="1" as="geometry">
                        <mxPoint x="490" y="400" as="sourcePoint"/>
                        <mxPoint x="680" y="210" as="targetPoint"/>
                    </mxGeometry>
                </mxCell>
                <mxCell id="Ui9jvW3Ol6LZvswqx7Jv-0" value="" style="endArrow=classic;html=1;rounded=0;" parent="MctrNSa3Du8lBBgZTMPF-1" edge="1">
                    <mxGeometry width="50" height="50" relative="1" as="geometry">
                        <mxPoint x="400" y="270" as="sourcePoint"/>
                        <mxPoint x="240" y="320" as="targetPoint"/>
                    </mxGeometry>
                </mxCell>
                <mxCell id="eUKwYThloJHyqjLCLP_I-0" value="" style="endArrow=classic;html=1;rounded=0;" parent="MctrNSa3Du8lBBgZTMPF-1" edge="1">
                    <mxGeometry width="50" height="50" relative="1" as="geometry">
                        <mxPoint x="240" y="330" as="sourcePoint"/>
                        <mxPoint x="400" y="400" as="targetPoint"/>
                    </mxGeometry>
                </mxCell>
                <mxCell id="fs3PRADvwg3qE9e08P4c-0" value="" style="endArrow=classic;html=1;rounded=0;" parent="MctrNSa3Du8lBBgZTMPF-1" edge="1">
                    <mxGeometry width="50" height="50" relative="1" as="geometry">
                        <mxPoint x="-30" y="200" as="sourcePoint"/>
                        <mxPoint x="110" y="200" as="targetPoint"/>
                    </mxGeometry>
                </mxCell>
                <mxCell id="fs3PRADvwg3qE9e08P4c-1" value="" style="endArrow=classic;html=1;rounded=0;" parent="MctrNSa3Du8lBBgZTMPF-1" edge="1">
                    <mxGeometry width="50" height="50" relative="1" as="geometry">
                        <mxPoint x="-30" y="200" as="sourcePoint"/>
                        <mxPoint x="110" y="80" as="targetPoint"/>
                    </mxGeometry>
                </mxCell>
                <mxCell id="fs3PRADvwg3qE9e08P4c-2" value="" style="endArrow=classic;html=1;rounded=0;" parent="MctrNSa3Du8lBBgZTMPF-1" edge="1">
                    <mxGeometry width="50" height="50" relative="1" as="geometry">
                        <mxPoint x="-30" y="200" as="sourcePoint"/>
                        <mxPoint x="110" y="320" as="targetPoint"/>
                    </mxGeometry>
                </mxCell>
            </root>
        </mxGraphModel>
    </diagram>
    <diagram id="q8-iIdnQaGOhImmDq-Hs" name="*従業員情報管理_完全削除">
        <mxGraphModel dx="1604" dy="430" grid="1" gridSize="10" guides="1" tooltips="1" connect="1" arrows="1" fold="1" page="1" pageScale="1" pageWidth="827" pageHeight="1169" math="0" shadow="0">
            <root>
                <mxCell id="FTmizxJ5Uo7_tb_mia2T-0"/>
                <mxCell id="FTmizxJ5Uo7_tb_mia2T-1" parent="FTmizxJ5Uo7_tb_mia2T-0"/>
                <mxCell id="FTmizxJ5Uo7_tb_mia2T-2" value="正規社員" style="shape=umlActor;verticalLabelPosition=bottom;verticalAlign=top;html=1;" parent="FTmizxJ5Uo7_tb_mia2T-1" vertex="1">
                    <mxGeometry x="-70" y="160" width="30" height="60" as="geometry"/>
                </mxCell>
                <mxCell id="FTmizxJ5Uo7_tb_mia2T-3" value="ログイン済&lt;br&gt;ホーム画面" style="shape=umlBoundary;whiteSpace=wrap;html=1;fillColor=#dae8fc;strokeColor=#6c8ebf;" parent="FTmizxJ5Uo7_tb_mia2T-1" vertex="1">
                    <mxGeometry x="120" y="40" width="100" height="80" as="geometry"/>
                </mxCell>
                <mxCell id="FTmizxJ5Uo7_tb_mia2T-4" value="従業員情報&lt;br&gt;一覧画面" style="shape=umlBoundary;whiteSpace=wrap;html=1;fillColor=#dae8fc;strokeColor=#6c8ebf;" parent="FTmizxJ5Uo7_tb_mia2T-1" vertex="1">
                    <mxGeometry x="120" y="160" width="100" height="80" as="geometry"/>
                </mxCell>
                <mxCell id="FTmizxJ5Uo7_tb_mia2T-5" value="従業員情報&lt;br&gt;を取得する" style="ellipse;shape=umlControl;whiteSpace=wrap;html=1;fillColor=#f8cecc;strokeColor=#b85450;" parent="FTmizxJ5Uo7_tb_mia2T-1" vertex="1">
                    <mxGeometry x="420" y="40" width="70" height="80" as="geometry"/>
                </mxCell>
                <mxCell id="FTmizxJ5Uo7_tb_mia2T-6" value="従業員情報" style="ellipse;shape=umlEntity;whiteSpace=wrap;html=1;fillColor=#d5e8d4;strokeColor=#82b366;" parent="FTmizxJ5Uo7_tb_mia2T-1" vertex="1">
                    <mxGeometry x="640" y="120" width="80" height="80" as="geometry"/>
                </mxCell>
                <mxCell id="FTmizxJ5Uo7_tb_mia2T-7" value="表示する" style="ellipse;shape=umlControl;whiteSpace=wrap;html=1;fillColor=#f8cecc;strokeColor=#b85450;" parent="FTmizxJ5Uo7_tb_mia2T-1" vertex="1">
                    <mxGeometry x="420" y="210" width="70" height="80" as="geometry"/>
                </mxCell>
                <mxCell id="FTmizxJ5Uo7_tb_mia2T-8" value="詳細画面" style="shape=umlBoundary;whiteSpace=wrap;html=1;fillColor=#dae8fc;strokeColor=#6c8ebf;" parent="FTmizxJ5Uo7_tb_mia2T-1" vertex="1">
                    <mxGeometry x="120" y="280" width="100" height="80" as="geometry"/>
                </mxCell>
                <mxCell id="FTmizxJ5Uo7_tb_mia2T-9" value="" style="endArrow=classic;html=1;rounded=0;exitX=1;exitY=0.5;exitDx=0;exitDy=0;exitPerimeter=0;entryX=-0.019;entryY=0.489;entryDx=0;entryDy=0;entryPerimeter=0;" parent="FTmizxJ5Uo7_tb_mia2T-1" source="FTmizxJ5Uo7_tb_mia2T-3" target="FTmizxJ5Uo7_tb_mia2T-5" edge="1">
                    <mxGeometry width="50" height="50" relative="1" as="geometry">
                        <mxPoint x="240" y="80" as="sourcePoint"/>
                        <mxPoint x="400" y="80" as="targetPoint"/>
                    </mxGeometry>
                </mxCell>
                <mxCell id="FTmizxJ5Uo7_tb_mia2T-10" value="「従業員情報マスタ」&lt;br&gt;を押下" style="text;html=1;strokeColor=none;fillColor=none;align=center;verticalAlign=middle;whiteSpace=wrap;rounded=0;" parent="FTmizxJ5Uo7_tb_mia2T-1" vertex="1">
                    <mxGeometry x="230" y="40" width="160" height="30" as="geometry"/>
                </mxCell>
                <mxCell id="FTmizxJ5Uo7_tb_mia2T-11" value="" style="endArrow=classic;html=1;rounded=0;" parent="FTmizxJ5Uo7_tb_mia2T-1" edge="1">
                    <mxGeometry width="50" height="50" relative="1" as="geometry">
                        <mxPoint x="410" y="90" as="sourcePoint"/>
                        <mxPoint x="240" y="200" as="targetPoint"/>
                    </mxGeometry>
                </mxCell>
                <mxCell id="FTmizxJ5Uo7_tb_mia2T-12" value="" style="endArrow=classic;html=1;rounded=0;" parent="FTmizxJ5Uo7_tb_mia2T-1" edge="1">
                    <mxGeometry width="50" height="50" relative="1" as="geometry">
                        <mxPoint x="240" y="210" as="sourcePoint"/>
                        <mxPoint x="410" y="260" as="targetPoint"/>
                    </mxGeometry>
                </mxCell>
                <mxCell id="FTmizxJ5Uo7_tb_mia2T-13" value="" style="endArrow=classic;html=1;rounded=0;startArrow=classic;startFill=1;" parent="FTmizxJ5Uo7_tb_mia2T-1" edge="1">
                    <mxGeometry width="50" height="50" relative="1" as="geometry">
                        <mxPoint x="500" y="80" as="sourcePoint"/>
                        <mxPoint x="620" y="159.9999999999999" as="targetPoint"/>
                    </mxGeometry>
                </mxCell>
                <mxCell id="FTmizxJ5Uo7_tb_mia2T-14" value="完全削除&lt;br&gt;する" style="ellipse;shape=umlControl;whiteSpace=wrap;html=1;fillColor=#f8cecc;strokeColor=#b85450;" parent="FTmizxJ5Uo7_tb_mia2T-1" vertex="1">
                    <mxGeometry x="414" y="360" width="70" height="80" as="geometry"/>
                </mxCell>
                <mxCell id="FTmizxJ5Uo7_tb_mia2T-15" value="" style="endArrow=classic;html=1;rounded=0;" parent="FTmizxJ5Uo7_tb_mia2T-1" edge="1">
                    <mxGeometry width="50" height="50" relative="1" as="geometry">
                        <mxPoint x="490" y="400" as="sourcePoint"/>
                        <mxPoint x="680" y="210" as="targetPoint"/>
                    </mxGeometry>
                </mxCell>
                <mxCell id="FTmizxJ5Uo7_tb_mia2T-16" value="" style="endArrow=classic;html=1;rounded=0;" parent="FTmizxJ5Uo7_tb_mia2T-1" edge="1">
                    <mxGeometry width="50" height="50" relative="1" as="geometry">
                        <mxPoint x="400" y="270" as="sourcePoint"/>
                        <mxPoint x="240" y="320" as="targetPoint"/>
                    </mxGeometry>
                </mxCell>
                <mxCell id="FTmizxJ5Uo7_tb_mia2T-17" value="" style="endArrow=classic;html=1;rounded=0;" parent="FTmizxJ5Uo7_tb_mia2T-1" edge="1">
                    <mxGeometry width="50" height="50" relative="1" as="geometry">
                        <mxPoint x="240" y="330" as="sourcePoint"/>
                        <mxPoint x="400" y="400" as="targetPoint"/>
                    </mxGeometry>
                </mxCell>
                <mxCell id="J02obl9D4JKI2htGLwr5-0" value="" style="endArrow=classic;html=1;rounded=0;" parent="FTmizxJ5Uo7_tb_mia2T-1" edge="1">
                    <mxGeometry width="50" height="50" relative="1" as="geometry">
                        <mxPoint x="-30" y="200" as="sourcePoint"/>
                        <mxPoint x="110" y="200" as="targetPoint"/>
                    </mxGeometry>
                </mxCell>
                <mxCell id="J02obl9D4JKI2htGLwr5-1" value="" style="endArrow=classic;html=1;rounded=0;" parent="FTmizxJ5Uo7_tb_mia2T-1" edge="1">
                    <mxGeometry width="50" height="50" relative="1" as="geometry">
                        <mxPoint x="-30" y="200" as="sourcePoint"/>
                        <mxPoint x="110" y="80" as="targetPoint"/>
                    </mxGeometry>
                </mxCell>
                <mxCell id="J02obl9D4JKI2htGLwr5-2" value="" style="endArrow=classic;html=1;rounded=0;" parent="FTmizxJ5Uo7_tb_mia2T-1" edge="1">
                    <mxGeometry width="50" height="50" relative="1" as="geometry">
                        <mxPoint x="-30" y="200" as="sourcePoint"/>
                        <mxPoint x="110" y="320" as="targetPoint"/>
                    </mxGeometry>
                </mxCell>
            </root>
        </mxGraphModel>
    </diagram>
    <diagram id="0njrBXwLBZodpT-bwOXG" name="*店舗情報管理_登録">
        <mxGraphModel dx="1816" dy="430" grid="1" gridSize="10" guides="1" tooltips="1" connect="1" arrows="1" fold="1" page="1" pageScale="1" pageWidth="827" pageHeight="1169" math="0" shadow="0">
            <root>
                <mxCell id="B2onn0E_DKdJGnS-M1Jf-0"/>
                <mxCell id="B2onn0E_DKdJGnS-M1Jf-1" parent="B2onn0E_DKdJGnS-M1Jf-0"/>
                <mxCell id="Rj_Em5FQ6qEgNJwc6hiV-0" value="ログイン済&lt;br&gt;ホーム画面" style="shape=umlBoundary;whiteSpace=wrap;html=1;fillColor=#dae8fc;strokeColor=#6c8ebf;" parent="B2onn0E_DKdJGnS-M1Jf-1" vertex="1">
                    <mxGeometry x="120" y="40" width="100" height="80" as="geometry"/>
                </mxCell>
                <mxCell id="Rj_Em5FQ6qEgNJwc6hiV-1" value="店舗情報&lt;br&gt;一覧画面" style="shape=umlBoundary;whiteSpace=wrap;html=1;fillColor=#dae8fc;strokeColor=#6c8ebf;" parent="B2onn0E_DKdJGnS-M1Jf-1" vertex="1">
                    <mxGeometry x="120" y="160" width="100" height="80" as="geometry"/>
                </mxCell>
                <mxCell id="Rj_Em5FQ6qEgNJwc6hiV-2" value="店舗情報を取得する" style="ellipse;shape=umlControl;whiteSpace=wrap;html=1;fillColor=#f8cecc;strokeColor=#b85450;" parent="B2onn0E_DKdJGnS-M1Jf-1" vertex="1">
                    <mxGeometry x="420" y="40" width="70" height="80" as="geometry"/>
                </mxCell>
                <mxCell id="Rj_Em5FQ6qEgNJwc6hiV-3" value="" style="endArrow=classic;html=1;rounded=0;exitX=1;exitY=0.5;exitDx=0;exitDy=0;exitPerimeter=0;entryX=-0.019;entryY=0.489;entryDx=0;entryDy=0;entryPerimeter=0;" parent="B2onn0E_DKdJGnS-M1Jf-1" source="Rj_Em5FQ6qEgNJwc6hiV-0" target="Rj_Em5FQ6qEgNJwc6hiV-2" edge="1">
                    <mxGeometry width="50" height="50" relative="1" as="geometry">
                        <mxPoint x="240" y="80" as="sourcePoint"/>
                        <mxPoint x="400" y="80" as="targetPoint"/>
                    </mxGeometry>
                </mxCell>
                <mxCell id="Rj_Em5FQ6qEgNJwc6hiV-4" value="「店舗情報マスタ」&lt;br&gt;を押下" style="text;html=1;strokeColor=none;fillColor=none;align=center;verticalAlign=middle;whiteSpace=wrap;rounded=0;" parent="B2onn0E_DKdJGnS-M1Jf-1" vertex="1">
                    <mxGeometry x="230" y="40" width="160" height="30" as="geometry"/>
                </mxCell>
                <mxCell id="Rj_Em5FQ6qEgNJwc6hiV-5" value="管理者" style="shape=umlActor;verticalLabelPosition=bottom;verticalAlign=top;html=1;" parent="B2onn0E_DKdJGnS-M1Jf-1" vertex="1">
                    <mxGeometry x="-40" y="170" width="30" height="60" as="geometry"/>
                </mxCell>
                <mxCell id="Rj_Em5FQ6qEgNJwc6hiV-6" value="新規登録&lt;br&gt;画面" style="shape=umlBoundary;whiteSpace=wrap;html=1;fillColor=#dae8fc;strokeColor=#6c8ebf;" parent="B2onn0E_DKdJGnS-M1Jf-1" vertex="1">
                    <mxGeometry x="120" y="280" width="100" height="80" as="geometry"/>
                </mxCell>
                <mxCell id="Rj_Em5FQ6qEgNJwc6hiV-7" value="店舗情報" style="ellipse;shape=umlEntity;whiteSpace=wrap;html=1;fillColor=#d5e8d4;strokeColor=#82b366;" parent="B2onn0E_DKdJGnS-M1Jf-1" vertex="1">
                    <mxGeometry x="710" y="160" width="80" height="80" as="geometry"/>
                </mxCell>
                <mxCell id="Rj_Em5FQ6qEgNJwc6hiV-8" value="" style="endArrow=classic;html=1;rounded=0;exitX=1;exitY=0.5;exitDx=0;exitDy=0;exitPerimeter=0;startArrow=classic;startFill=1;" parent="B2onn0E_DKdJGnS-M1Jf-1" edge="1">
                    <mxGeometry width="50" height="50" relative="1" as="geometry">
                        <mxPoint x="511.3299999999999" y="79.88" as="sourcePoint"/>
                        <mxPoint x="690" y="200" as="targetPoint"/>
                    </mxGeometry>
                </mxCell>
                <mxCell id="Rj_Em5FQ6qEgNJwc6hiV-9" value="" style="endArrow=none;html=1;rounded=0;startArrow=classic;startFill=1;endFill=0;" parent="B2onn0E_DKdJGnS-M1Jf-1" edge="1">
                    <mxGeometry width="50" height="50" relative="1" as="geometry">
                        <mxPoint x="230" y="200" as="sourcePoint"/>
                        <mxPoint x="410" y="90" as="targetPoint"/>
                    </mxGeometry>
                </mxCell>
                <mxCell id="Rj_Em5FQ6qEgNJwc6hiV-10" value="表示する" style="ellipse;shape=umlControl;whiteSpace=wrap;html=1;fillColor=#f8cecc;strokeColor=#b85450;" parent="B2onn0E_DKdJGnS-M1Jf-1" vertex="1">
                    <mxGeometry x="420" y="200" width="70" height="80" as="geometry"/>
                </mxCell>
                <mxCell id="Rj_Em5FQ6qEgNJwc6hiV-11" value="" style="endArrow=none;html=1;rounded=0;startArrow=classic;startFill=1;endFill=0;" parent="B2onn0E_DKdJGnS-M1Jf-1" edge="1">
                    <mxGeometry width="50" height="50" relative="1" as="geometry">
                        <mxPoint x="410" y="240" as="sourcePoint"/>
                        <mxPoint x="240" y="200" as="targetPoint"/>
                    </mxGeometry>
                </mxCell>
                <mxCell id="Rj_Em5FQ6qEgNJwc6hiV-12" value="" style="endArrow=none;html=1;rounded=0;startArrow=classic;startFill=1;endFill=0;" parent="B2onn0E_DKdJGnS-M1Jf-1" edge="1">
                    <mxGeometry width="50" height="50" relative="1" as="geometry">
                        <mxPoint x="240" y="320" as="sourcePoint"/>
                        <mxPoint x="410" y="250" as="targetPoint"/>
                    </mxGeometry>
                </mxCell>
                <mxCell id="Rj_Em5FQ6qEgNJwc6hiV-13" value="入力データ検証" style="ellipse;shape=umlControl;whiteSpace=wrap;html=1;fillColor=#f8cecc;strokeColor=#b85450;" parent="B2onn0E_DKdJGnS-M1Jf-1" vertex="1">
                    <mxGeometry x="420" y="360" width="70" height="80" as="geometry"/>
                </mxCell>
                <mxCell id="Rj_Em5FQ6qEgNJwc6hiV-14" value="" style="endArrow=classic;html=1;rounded=0;startArrow=classic;startFill=1;endFill=1;" parent="B2onn0E_DKdJGnS-M1Jf-1" edge="1">
                    <mxGeometry width="50" height="50" relative="1" as="geometry">
                        <mxPoint x="400" y="400" as="sourcePoint"/>
                        <mxPoint x="240" y="330" as="targetPoint"/>
                    </mxGeometry>
                </mxCell>
                <mxCell id="Rj_Em5FQ6qEgNJwc6hiV-15" value="登録する" style="ellipse;shape=umlControl;whiteSpace=wrap;html=1;fillColor=#f8cecc;strokeColor=#b85450;" parent="B2onn0E_DKdJGnS-M1Jf-1" vertex="1">
                    <mxGeometry x="420" y="520" width="70" height="80" as="geometry"/>
                </mxCell>
                <mxCell id="Rj_Em5FQ6qEgNJwc6hiV-16" value="" style="endArrow=none;html=1;rounded=0;startArrow=classic;startFill=1;endFill=0;" parent="B2onn0E_DKdJGnS-M1Jf-1" source="Rj_Em5FQ6qEgNJwc6hiV-15" edge="1">
                    <mxGeometry width="50" height="50" relative="1" as="geometry">
                        <mxPoint x="410" y="410" as="sourcePoint"/>
                        <mxPoint x="455" y="450" as="targetPoint"/>
                    </mxGeometry>
                </mxCell>
                <mxCell id="Rj_Em5FQ6qEgNJwc6hiV-17" value="" style="endArrow=none;html=1;rounded=0;startArrow=classic;startFill=1;endFill=0;" parent="B2onn0E_DKdJGnS-M1Jf-1" edge="1">
                    <mxGeometry width="50" height="50" relative="1" as="geometry">
                        <mxPoint x="690" y="210" as="sourcePoint"/>
                        <mxPoint x="500" y="560" as="targetPoint"/>
                    </mxGeometry>
                </mxCell>
                <mxCell id="Rj_Em5FQ6qEgNJwc6hiV-18" value="データ入力" style="text;html=1;strokeColor=none;fillColor=none;align=center;verticalAlign=middle;whiteSpace=wrap;rounded=0;" parent="B2onn0E_DKdJGnS-M1Jf-1" vertex="1">
                    <mxGeometry x="290" y="350" width="160" height="30" as="geometry"/>
                </mxCell>
                <mxCell id="Rj_Em5FQ6qEgNJwc6hiV-19" value="「新規登録」&lt;br&gt;を押下" style="text;html=1;strokeColor=none;fillColor=none;align=center;verticalAlign=middle;whiteSpace=wrap;rounded=0;" parent="B2onn0E_DKdJGnS-M1Jf-1" vertex="1">
                    <mxGeometry x="270" y="185" width="160" height="30" as="geometry"/>
                </mxCell>
                <mxCell id="Rj_Em5FQ6qEgNJwc6hiV-20" value="入力エラー時は&lt;br&gt;エラーメッセージを表示" style="text;html=1;strokeColor=none;fillColor=none;align=center;verticalAlign=middle;whiteSpace=wrap;rounded=0;" parent="B2onn0E_DKdJGnS-M1Jf-1" vertex="1">
                    <mxGeometry x="210" y="380" width="160" height="30" as="geometry"/>
                </mxCell>
                <mxCell id="-Z23oWpu5IADky0cIbeO-0" value="" style="endArrow=classic;html=1;rounded=0;" edge="1" parent="B2onn0E_DKdJGnS-M1Jf-1">
                    <mxGeometry width="50" height="50" relative="1" as="geometry">
                        <mxPoint y="200" as="sourcePoint"/>
                        <mxPoint x="110" y="200" as="targetPoint"/>
                    </mxGeometry>
                </mxCell>
                <mxCell id="-Z23oWpu5IADky0cIbeO-1" value="" style="endArrow=classic;html=1;rounded=0;" edge="1" parent="B2onn0E_DKdJGnS-M1Jf-1">
                    <mxGeometry width="50" height="50" relative="1" as="geometry">
                        <mxPoint y="200" as="sourcePoint"/>
                        <mxPoint x="110" y="320" as="targetPoint"/>
                    </mxGeometry>
                </mxCell>
                <mxCell id="-Z23oWpu5IADky0cIbeO-2" value="" style="endArrow=classic;html=1;rounded=0;" edge="1" parent="B2onn0E_DKdJGnS-M1Jf-1">
                    <mxGeometry width="50" height="50" relative="1" as="geometry">
                        <mxPoint y="200" as="sourcePoint"/>
                        <mxPoint x="110" y="80" as="targetPoint"/>
                    </mxGeometry>
                </mxCell>
            </root>
        </mxGraphModel>
    </diagram>
    <diagram id="SjRwPrIsXA_sPiAEgSe7" name="*店舗情報管理_参照">
        <mxGraphModel dx="1591" dy="339" grid="1" gridSize="10" guides="1" tooltips="1" connect="1" arrows="1" fold="1" page="1" pageScale="1" pageWidth="827" pageHeight="1169" math="0" shadow="0">
            <root>
                <mxCell id="0wM4-PDtNf0cweebk43Z-0"/>
                <mxCell id="0wM4-PDtNf0cweebk43Z-1" parent="0wM4-PDtNf0cweebk43Z-0"/>
                <mxCell id="cFLNrdwS17dnv2S3D2eg-0" value="管理者&lt;br&gt;正規社員" style="shape=umlActor;verticalLabelPosition=bottom;verticalAlign=top;html=1;" parent="0wM4-PDtNf0cweebk43Z-1" vertex="1">
                    <mxGeometry x="-70" y="160" width="30" height="60" as="geometry"/>
                </mxCell>
                <mxCell id="cFLNrdwS17dnv2S3D2eg-1" value="ログイン済&lt;br&gt;ホーム画面" style="shape=umlBoundary;whiteSpace=wrap;html=1;fillColor=#dae8fc;strokeColor=#6c8ebf;" parent="0wM4-PDtNf0cweebk43Z-1" vertex="1">
                    <mxGeometry x="120" y="40" width="100" height="80" as="geometry"/>
                </mxCell>
                <mxCell id="cFLNrdwS17dnv2S3D2eg-2" value="店舗情報&lt;br&gt;一覧画面" style="shape=umlBoundary;whiteSpace=wrap;html=1;fillColor=#dae8fc;strokeColor=#6c8ebf;" parent="0wM4-PDtNf0cweebk43Z-1" vertex="1">
                    <mxGeometry x="120" y="160" width="100" height="80" as="geometry"/>
                </mxCell>
                <mxCell id="cFLNrdwS17dnv2S3D2eg-3" value="店舗情報を取得する" style="ellipse;shape=umlControl;whiteSpace=wrap;html=1;fillColor=#f8cecc;strokeColor=#b85450;" parent="0wM4-PDtNf0cweebk43Z-1" vertex="1">
                    <mxGeometry x="420" y="40" width="70" height="80" as="geometry"/>
                </mxCell>
                <mxCell id="cFLNrdwS17dnv2S3D2eg-4" value="店舗情報" style="ellipse;shape=umlEntity;whiteSpace=wrap;html=1;fillColor=#d5e8d4;strokeColor=#82b366;" parent="0wM4-PDtNf0cweebk43Z-1" vertex="1">
                    <mxGeometry x="640" y="120" width="80" height="80" as="geometry"/>
                </mxCell>
                <mxCell id="cFLNrdwS17dnv2S3D2eg-5" value="表示する" style="ellipse;shape=umlControl;whiteSpace=wrap;html=1;fillColor=#f8cecc;strokeColor=#b85450;" parent="0wM4-PDtNf0cweebk43Z-1" vertex="1">
                    <mxGeometry x="420" y="210" width="70" height="80" as="geometry"/>
                </mxCell>
                <mxCell id="cFLNrdwS17dnv2S3D2eg-6" value="詳細画面" style="shape=umlBoundary;whiteSpace=wrap;html=1;fillColor=#dae8fc;strokeColor=#6c8ebf;" parent="0wM4-PDtNf0cweebk43Z-1" vertex="1">
                    <mxGeometry x="120" y="280" width="100" height="80" as="geometry"/>
                </mxCell>
                <mxCell id="cFLNrdwS17dnv2S3D2eg-7" value="" style="endArrow=classic;html=1;rounded=0;exitX=1;exitY=0.5;exitDx=0;exitDy=0;exitPerimeter=0;entryX=-0.019;entryY=0.489;entryDx=0;entryDy=0;entryPerimeter=0;" parent="0wM4-PDtNf0cweebk43Z-1" source="cFLNrdwS17dnv2S3D2eg-1" target="cFLNrdwS17dnv2S3D2eg-3" edge="1">
                    <mxGeometry width="50" height="50" relative="1" as="geometry">
                        <mxPoint x="240" y="80" as="sourcePoint"/>
                        <mxPoint x="400" y="80" as="targetPoint"/>
                    </mxGeometry>
                </mxCell>
                <mxCell id="cFLNrdwS17dnv2S3D2eg-8" value="「店舗情報マスタ」&lt;br&gt;を押下" style="text;html=1;strokeColor=none;fillColor=none;align=center;verticalAlign=middle;whiteSpace=wrap;rounded=0;" parent="0wM4-PDtNf0cweebk43Z-1" vertex="1">
                    <mxGeometry x="230" y="40" width="160" height="30" as="geometry"/>
                </mxCell>
                <mxCell id="cFLNrdwS17dnv2S3D2eg-9" value="" style="endArrow=classic;html=1;rounded=0;" parent="0wM4-PDtNf0cweebk43Z-1" edge="1">
                    <mxGeometry width="50" height="50" relative="1" as="geometry">
                        <mxPoint x="410" y="90" as="sourcePoint"/>
                        <mxPoint x="240" y="200" as="targetPoint"/>
                    </mxGeometry>
                </mxCell>
                <mxCell id="cFLNrdwS17dnv2S3D2eg-10" value="" style="endArrow=classic;html=1;rounded=0;" parent="0wM4-PDtNf0cweebk43Z-1" edge="1">
                    <mxGeometry width="50" height="50" relative="1" as="geometry">
                        <mxPoint x="240" y="210" as="sourcePoint"/>
                        <mxPoint x="410" y="260" as="targetPoint"/>
                    </mxGeometry>
                </mxCell>
                <mxCell id="cFLNrdwS17dnv2S3D2eg-11" value="" style="endArrow=classic;html=1;rounded=0;" parent="0wM4-PDtNf0cweebk43Z-1" edge="1">
                    <mxGeometry width="50" height="50" relative="1" as="geometry">
                        <mxPoint x="400" y="270" as="sourcePoint"/>
                        <mxPoint x="240" y="320" as="targetPoint"/>
                    </mxGeometry>
                </mxCell>
                <mxCell id="cFLNrdwS17dnv2S3D2eg-12" value="" style="endArrow=classic;html=1;rounded=0;startArrow=classic;startFill=1;" parent="0wM4-PDtNf0cweebk43Z-1" edge="1">
                    <mxGeometry width="50" height="50" relative="1" as="geometry">
                        <mxPoint x="500" y="80" as="sourcePoint"/>
                        <mxPoint x="620" y="160" as="targetPoint"/>
                    </mxGeometry>
                </mxCell>
                <mxCell id="LqHnXmeNuNXDJQg0NYT9-0" value="" style="endArrow=classic;html=1;rounded=0;" parent="0wM4-PDtNf0cweebk43Z-1" edge="1">
                    <mxGeometry width="50" height="50" relative="1" as="geometry">
                        <mxPoint x="-30" y="200" as="sourcePoint"/>
                        <mxPoint x="110" y="200" as="targetPoint"/>
                    </mxGeometry>
                </mxCell>
                <mxCell id="LqHnXmeNuNXDJQg0NYT9-1" value="" style="endArrow=classic;html=1;rounded=0;" parent="0wM4-PDtNf0cweebk43Z-1" edge="1">
                    <mxGeometry width="50" height="50" relative="1" as="geometry">
                        <mxPoint x="-20" y="200" as="sourcePoint"/>
                        <mxPoint x="110" y="320" as="targetPoint"/>
                    </mxGeometry>
                </mxCell>
                <mxCell id="LqHnXmeNuNXDJQg0NYT9-2" value="" style="endArrow=classic;html=1;rounded=0;" parent="0wM4-PDtNf0cweebk43Z-1" edge="1">
                    <mxGeometry width="50" height="50" relative="1" as="geometry">
                        <mxPoint x="-30" y="200" as="sourcePoint"/>
                        <mxPoint x="110" y="80" as="targetPoint"/>
                    </mxGeometry>
                </mxCell>
            </root>
        </mxGraphModel>
    </diagram>
    <diagram id="OAosC6wEdwBd4S2FgjxL" name="*店舗情報管理_編集">
        <mxGraphModel dx="1604" dy="430" grid="1" gridSize="10" guides="1" tooltips="1" connect="1" arrows="1" fold="1" page="1" pageScale="1" pageWidth="827" pageHeight="1169" math="0" shadow="0">
            <root>
                <mxCell id="mYNMvEEZdprbyX6TXufr-0"/>
                <mxCell id="mYNMvEEZdprbyX6TXufr-1" parent="mYNMvEEZdprbyX6TXufr-0"/>
                <mxCell id="Gu77gg3bIoj_smXsPxCx-0" value="管理者" style="shape=umlActor;verticalLabelPosition=bottom;verticalAlign=top;html=1;" parent="mYNMvEEZdprbyX6TXufr-1" vertex="1">
                    <mxGeometry x="-70" y="160" width="30" height="60" as="geometry"/>
                </mxCell>
                <mxCell id="Gu77gg3bIoj_smXsPxCx-1" value="ログイン済&lt;br&gt;ホーム画面" style="shape=umlBoundary;whiteSpace=wrap;html=1;fillColor=#dae8fc;strokeColor=#6c8ebf;" parent="mYNMvEEZdprbyX6TXufr-1" vertex="1">
                    <mxGeometry x="120" y="40" width="100" height="80" as="geometry"/>
                </mxCell>
                <mxCell id="Gu77gg3bIoj_smXsPxCx-2" value="店舗情報&lt;br&gt;一覧画面" style="shape=umlBoundary;whiteSpace=wrap;html=1;fillColor=#dae8fc;strokeColor=#6c8ebf;" parent="mYNMvEEZdprbyX6TXufr-1" vertex="1">
                    <mxGeometry x="120" y="160" width="100" height="80" as="geometry"/>
                </mxCell>
                <mxCell id="Gu77gg3bIoj_smXsPxCx-3" value="店舗情報を取得する" style="ellipse;shape=umlControl;whiteSpace=wrap;html=1;fillColor=#f8cecc;strokeColor=#b85450;" parent="mYNMvEEZdprbyX6TXufr-1" vertex="1">
                    <mxGeometry x="420" y="40" width="70" height="80" as="geometry"/>
                </mxCell>
                <mxCell id="Gu77gg3bIoj_smXsPxCx-4" value="店舗情報" style="ellipse;shape=umlEntity;whiteSpace=wrap;html=1;fillColor=#d5e8d4;strokeColor=#82b366;" parent="mYNMvEEZdprbyX6TXufr-1" vertex="1">
                    <mxGeometry x="640" y="120" width="80" height="80" as="geometry"/>
                </mxCell>
                <mxCell id="Gu77gg3bIoj_smXsPxCx-5" value="表示する" style="ellipse;shape=umlControl;whiteSpace=wrap;html=1;fillColor=#f8cecc;strokeColor=#b85450;" parent="mYNMvEEZdprbyX6TXufr-1" vertex="1">
                    <mxGeometry x="420" y="210" width="70" height="80" as="geometry"/>
                </mxCell>
                <mxCell id="Gu77gg3bIoj_smXsPxCx-6" value="詳細画面" style="shape=umlBoundary;whiteSpace=wrap;html=1;fillColor=#dae8fc;strokeColor=#6c8ebf;" parent="mYNMvEEZdprbyX6TXufr-1" vertex="1">
                    <mxGeometry x="120" y="280" width="100" height="80" as="geometry"/>
                </mxCell>
                <mxCell id="Gu77gg3bIoj_smXsPxCx-7" value="" style="endArrow=classic;html=1;rounded=0;exitX=1;exitY=0.5;exitDx=0;exitDy=0;exitPerimeter=0;entryX=-0.019;entryY=0.489;entryDx=0;entryDy=0;entryPerimeter=0;" parent="mYNMvEEZdprbyX6TXufr-1" source="Gu77gg3bIoj_smXsPxCx-1" target="Gu77gg3bIoj_smXsPxCx-3" edge="1">
                    <mxGeometry width="50" height="50" relative="1" as="geometry">
                        <mxPoint x="240" y="80" as="sourcePoint"/>
                        <mxPoint x="400" y="80" as="targetPoint"/>
                    </mxGeometry>
                </mxCell>
                <mxCell id="Gu77gg3bIoj_smXsPxCx-8" value="「店舗情報マスタ」&lt;br&gt;を押下" style="text;html=1;strokeColor=none;fillColor=none;align=center;verticalAlign=middle;whiteSpace=wrap;rounded=0;" parent="mYNMvEEZdprbyX6TXufr-1" vertex="1">
                    <mxGeometry x="230" y="40" width="160" height="30" as="geometry"/>
                </mxCell>
                <mxCell id="Gu77gg3bIoj_smXsPxCx-9" value="" style="endArrow=classic;html=1;rounded=0;" parent="mYNMvEEZdprbyX6TXufr-1" edge="1">
                    <mxGeometry width="50" height="50" relative="1" as="geometry">
                        <mxPoint x="410" y="90" as="sourcePoint"/>
                        <mxPoint x="240" y="199.9999999999999" as="targetPoint"/>
                    </mxGeometry>
                </mxCell>
                <mxCell id="Gu77gg3bIoj_smXsPxCx-10" value="" style="endArrow=classic;html=1;rounded=0;" parent="mYNMvEEZdprbyX6TXufr-1" edge="1">
                    <mxGeometry width="50" height="50" relative="1" as="geometry">
                        <mxPoint x="240" y="209.9999999999999" as="sourcePoint"/>
                        <mxPoint x="410" y="259.9999999999999" as="targetPoint"/>
                    </mxGeometry>
                </mxCell>
                <mxCell id="Gu77gg3bIoj_smXsPxCx-11" value="" style="endArrow=classic;html=1;rounded=0;startArrow=classic;startFill=1;" parent="mYNMvEEZdprbyX6TXufr-1" edge="1">
                    <mxGeometry width="50" height="50" relative="1" as="geometry">
                        <mxPoint x="400" y="269.9999999999999" as="sourcePoint"/>
                        <mxPoint x="240" y="320" as="targetPoint"/>
                    </mxGeometry>
                </mxCell>
                <mxCell id="Gu77gg3bIoj_smXsPxCx-12" value="" style="endArrow=classic;html=1;rounded=0;startArrow=classic;startFill=1;" parent="mYNMvEEZdprbyX6TXufr-1" edge="1">
                    <mxGeometry width="50" height="50" relative="1" as="geometry">
                        <mxPoint x="500" y="80" as="sourcePoint"/>
                        <mxPoint x="620" y="159.9999999999999" as="targetPoint"/>
                    </mxGeometry>
                </mxCell>
                <mxCell id="Gu77gg3bIoj_smXsPxCx-13" value="編集画面" style="shape=umlBoundary;whiteSpace=wrap;html=1;fillColor=#dae8fc;strokeColor=#6c8ebf;" parent="mYNMvEEZdprbyX6TXufr-1" vertex="1">
                    <mxGeometry x="120" y="400" width="100" height="80" as="geometry"/>
                </mxCell>
                <mxCell id="Gu77gg3bIoj_smXsPxCx-14" value="" style="endArrow=classic;html=1;rounded=0;" parent="mYNMvEEZdprbyX6TXufr-1" edge="1">
                    <mxGeometry width="50" height="50" relative="1" as="geometry">
                        <mxPoint x="410" y="279.9999999999999" as="sourcePoint"/>
                        <mxPoint x="240" y="430" as="targetPoint"/>
                    </mxGeometry>
                </mxCell>
                <mxCell id="Gu77gg3bIoj_smXsPxCx-15" value="入力データ検証" style="ellipse;shape=umlControl;whiteSpace=wrap;html=1;fillColor=#f8cecc;strokeColor=#b85450;" parent="mYNMvEEZdprbyX6TXufr-1" vertex="1">
                    <mxGeometry x="420" y="400" width="70" height="80" as="geometry"/>
                </mxCell>
                <mxCell id="Gu77gg3bIoj_smXsPxCx-16" value="" style="endArrow=classic;html=1;rounded=0;startArrow=classic;startFill=1;" parent="mYNMvEEZdprbyX6TXufr-1" edge="1">
                    <mxGeometry width="50" height="50" relative="1" as="geometry">
                        <mxPoint x="240" y="440" as="sourcePoint"/>
                        <mxPoint x="410" y="440" as="targetPoint"/>
                    </mxGeometry>
                </mxCell>
                <mxCell id="Gu77gg3bIoj_smXsPxCx-17" value="更新する" style="ellipse;shape=umlControl;whiteSpace=wrap;html=1;fillColor=#f8cecc;strokeColor=#b85450;" parent="mYNMvEEZdprbyX6TXufr-1" vertex="1">
                    <mxGeometry x="520" y="520" width="70" height="80" as="geometry"/>
                </mxCell>
                <mxCell id="Gu77gg3bIoj_smXsPxCx-18" value="" style="endArrow=classic;html=1;rounded=0;" parent="mYNMvEEZdprbyX6TXufr-1" target="Gu77gg3bIoj_smXsPxCx-17" edge="1">
                    <mxGeometry width="50" height="50" relative="1" as="geometry">
                        <mxPoint x="490" y="490" as="sourcePoint"/>
                        <mxPoint x="250" y="440" as="targetPoint"/>
                    </mxGeometry>
                </mxCell>
                <mxCell id="Gu77gg3bIoj_smXsPxCx-19" value="" style="endArrow=classic;html=1;rounded=0;" parent="mYNMvEEZdprbyX6TXufr-1" edge="1">
                    <mxGeometry width="50" height="50" relative="1" as="geometry">
                        <mxPoint x="600" y="520" as="sourcePoint"/>
                        <mxPoint x="680" y="209.9999999999999" as="targetPoint"/>
                    </mxGeometry>
                </mxCell>
                <mxCell id="-8u-g4IL-zDhaG-qGuXD-0" value="" style="endArrow=classic;html=1;rounded=0;" parent="mYNMvEEZdprbyX6TXufr-1" edge="1">
                    <mxGeometry width="50" height="50" relative="1" as="geometry">
                        <mxPoint x="-30" y="200" as="sourcePoint"/>
                        <mxPoint x="110" y="200" as="targetPoint"/>
                    </mxGeometry>
                </mxCell>
                <mxCell id="-8u-g4IL-zDhaG-qGuXD-1" value="" style="endArrow=classic;html=1;rounded=0;" parent="mYNMvEEZdprbyX6TXufr-1" edge="1">
                    <mxGeometry width="50" height="50" relative="1" as="geometry">
                        <mxPoint x="-30" y="200" as="sourcePoint"/>
                        <mxPoint x="110" y="80" as="targetPoint"/>
                    </mxGeometry>
                </mxCell>
                <mxCell id="-8u-g4IL-zDhaG-qGuXD-2" value="" style="endArrow=classic;html=1;rounded=0;" parent="mYNMvEEZdprbyX6TXufr-1" edge="1">
                    <mxGeometry width="50" height="50" relative="1" as="geometry">
                        <mxPoint x="-30" y="200" as="sourcePoint"/>
                        <mxPoint x="110" y="320" as="targetPoint"/>
                    </mxGeometry>
                </mxCell>
                <mxCell id="-8u-g4IL-zDhaG-qGuXD-3" value="" style="endArrow=classic;html=1;rounded=0;" parent="mYNMvEEZdprbyX6TXufr-1" edge="1">
                    <mxGeometry width="50" height="50" relative="1" as="geometry">
                        <mxPoint x="-30" y="200" as="sourcePoint"/>
                        <mxPoint x="110" y="440" as="targetPoint"/>
                    </mxGeometry>
                </mxCell>
            </root>
        </mxGraphModel>
    </diagram>
    <diagram id="hSwyPR2D0Fulrqtt-Bpg" name="*店舗情報管理_削除">
        <mxGraphModel dx="1604" dy="430" grid="1" gridSize="10" guides="1" tooltips="1" connect="1" arrows="1" fold="1" page="1" pageScale="1" pageWidth="827" pageHeight="1169" math="0" shadow="0">
            <root>
                <mxCell id="nOBV6p7rp-YeCwguWGeW-0"/>
                <mxCell id="nOBV6p7rp-YeCwguWGeW-1" parent="nOBV6p7rp-YeCwguWGeW-0"/>
                <mxCell id="p5BlYStGxNaua3E3bbs1-0" value="管理者" style="shape=umlActor;verticalLabelPosition=bottom;verticalAlign=top;html=1;" parent="nOBV6p7rp-YeCwguWGeW-1" vertex="1">
                    <mxGeometry x="-70" y="160" width="30" height="60" as="geometry"/>
                </mxCell>
                <mxCell id="p5BlYStGxNaua3E3bbs1-1" value="ログイン済&lt;br&gt;ホーム画面" style="shape=umlBoundary;whiteSpace=wrap;html=1;fillColor=#dae8fc;strokeColor=#6c8ebf;" parent="nOBV6p7rp-YeCwguWGeW-1" vertex="1">
                    <mxGeometry x="120" y="40" width="100" height="80" as="geometry"/>
                </mxCell>
                <mxCell id="p5BlYStGxNaua3E3bbs1-2" value="店舗情報&lt;br&gt;一覧画面" style="shape=umlBoundary;whiteSpace=wrap;html=1;fillColor=#dae8fc;strokeColor=#6c8ebf;" parent="nOBV6p7rp-YeCwguWGeW-1" vertex="1">
                    <mxGeometry x="120" y="160" width="100" height="80" as="geometry"/>
                </mxCell>
                <mxCell id="p5BlYStGxNaua3E3bbs1-3" value="店舗情報&lt;br&gt;を取得する" style="ellipse;shape=umlControl;whiteSpace=wrap;html=1;fillColor=#f8cecc;strokeColor=#b85450;" parent="nOBV6p7rp-YeCwguWGeW-1" vertex="1">
                    <mxGeometry x="420" y="40" width="70" height="80" as="geometry"/>
                </mxCell>
                <mxCell id="p5BlYStGxNaua3E3bbs1-4" value="店舗情報" style="ellipse;shape=umlEntity;whiteSpace=wrap;html=1;fillColor=#d5e8d4;strokeColor=#82b366;" parent="nOBV6p7rp-YeCwguWGeW-1" vertex="1">
                    <mxGeometry x="640" y="120" width="80" height="80" as="geometry"/>
                </mxCell>
                <mxCell id="p5BlYStGxNaua3E3bbs1-5" value="表示する" style="ellipse;shape=umlControl;whiteSpace=wrap;html=1;fillColor=#f8cecc;strokeColor=#b85450;" parent="nOBV6p7rp-YeCwguWGeW-1" vertex="1">
                    <mxGeometry x="420" y="210" width="70" height="80" as="geometry"/>
                </mxCell>
                <mxCell id="p5BlYStGxNaua3E3bbs1-6" value="詳細画面" style="shape=umlBoundary;whiteSpace=wrap;html=1;fillColor=#dae8fc;strokeColor=#6c8ebf;" parent="nOBV6p7rp-YeCwguWGeW-1" vertex="1">
                    <mxGeometry x="120" y="280" width="100" height="80" as="geometry"/>
                </mxCell>
                <mxCell id="p5BlYStGxNaua3E3bbs1-7" value="" style="endArrow=classic;html=1;rounded=0;exitX=1;exitY=0.5;exitDx=0;exitDy=0;exitPerimeter=0;entryX=-0.019;entryY=0.489;entryDx=0;entryDy=0;entryPerimeter=0;" parent="nOBV6p7rp-YeCwguWGeW-1" source="p5BlYStGxNaua3E3bbs1-1" target="p5BlYStGxNaua3E3bbs1-3" edge="1">
                    <mxGeometry width="50" height="50" relative="1" as="geometry">
                        <mxPoint x="240" y="80" as="sourcePoint"/>
                        <mxPoint x="400" y="80" as="targetPoint"/>
                    </mxGeometry>
                </mxCell>
                <mxCell id="p5BlYStGxNaua3E3bbs1-8" value="「店舗情報マスタ」&lt;br&gt;を押下" style="text;html=1;strokeColor=none;fillColor=none;align=center;verticalAlign=middle;whiteSpace=wrap;rounded=0;" parent="nOBV6p7rp-YeCwguWGeW-1" vertex="1">
                    <mxGeometry x="230" y="40" width="160" height="30" as="geometry"/>
                </mxCell>
                <mxCell id="p5BlYStGxNaua3E3bbs1-9" value="" style="endArrow=classic;html=1;rounded=0;" parent="nOBV6p7rp-YeCwguWGeW-1" edge="1">
                    <mxGeometry width="50" height="50" relative="1" as="geometry">
                        <mxPoint x="410" y="90" as="sourcePoint"/>
                        <mxPoint x="240" y="200" as="targetPoint"/>
                    </mxGeometry>
                </mxCell>
                <mxCell id="p5BlYStGxNaua3E3bbs1-10" value="" style="endArrow=classic;html=1;rounded=0;" parent="nOBV6p7rp-YeCwguWGeW-1" edge="1">
                    <mxGeometry width="50" height="50" relative="1" as="geometry">
                        <mxPoint x="240" y="210" as="sourcePoint"/>
                        <mxPoint x="410" y="260" as="targetPoint"/>
                    </mxGeometry>
                </mxCell>
                <mxCell id="p5BlYStGxNaua3E3bbs1-11" value="" style="endArrow=classic;html=1;rounded=0;startArrow=classic;startFill=1;" parent="nOBV6p7rp-YeCwguWGeW-1" edge="1">
                    <mxGeometry width="50" height="50" relative="1" as="geometry">
                        <mxPoint x="500" y="80" as="sourcePoint"/>
                        <mxPoint x="620" y="160" as="targetPoint"/>
                    </mxGeometry>
                </mxCell>
                <mxCell id="p5BlYStGxNaua3E3bbs1-12" value="削除する" style="ellipse;shape=umlControl;whiteSpace=wrap;html=1;fillColor=#f8cecc;strokeColor=#b85450;" parent="nOBV6p7rp-YeCwguWGeW-1" vertex="1">
                    <mxGeometry x="414" y="360" width="70" height="80" as="geometry"/>
                </mxCell>
                <mxCell id="p5BlYStGxNaua3E3bbs1-13" value="" style="endArrow=classic;html=1;rounded=0;" parent="nOBV6p7rp-YeCwguWGeW-1" edge="1">
                    <mxGeometry width="50" height="50" relative="1" as="geometry">
                        <mxPoint x="490" y="400" as="sourcePoint"/>
                        <mxPoint x="680" y="210" as="targetPoint"/>
                    </mxGeometry>
                </mxCell>
                <mxCell id="p5BlYStGxNaua3E3bbs1-14" value="" style="endArrow=classic;html=1;rounded=0;" parent="nOBV6p7rp-YeCwguWGeW-1" edge="1">
                    <mxGeometry width="50" height="50" relative="1" as="geometry">
                        <mxPoint x="400" y="270" as="sourcePoint"/>
                        <mxPoint x="240" y="320" as="targetPoint"/>
                    </mxGeometry>
                </mxCell>
                <mxCell id="p5BlYStGxNaua3E3bbs1-15" value="" style="endArrow=classic;html=1;rounded=0;" parent="nOBV6p7rp-YeCwguWGeW-1" edge="1">
                    <mxGeometry width="50" height="50" relative="1" as="geometry">
                        <mxPoint x="240" y="330" as="sourcePoint"/>
                        <mxPoint x="400" y="400" as="targetPoint"/>
                    </mxGeometry>
                </mxCell>
                <mxCell id="71VljPQ-4sb787qT-ypq-0" value="" style="endArrow=classic;html=1;rounded=0;" parent="nOBV6p7rp-YeCwguWGeW-1" edge="1">
                    <mxGeometry width="50" height="50" relative="1" as="geometry">
                        <mxPoint x="-30" y="200" as="sourcePoint"/>
                        <mxPoint x="110" y="200" as="targetPoint"/>
                    </mxGeometry>
                </mxCell>
                <mxCell id="71VljPQ-4sb787qT-ypq-1" value="" style="endArrow=classic;html=1;rounded=0;" parent="nOBV6p7rp-YeCwguWGeW-1" edge="1">
                    <mxGeometry width="50" height="50" relative="1" as="geometry">
                        <mxPoint x="-30" y="200" as="sourcePoint"/>
                        <mxPoint x="110" y="320" as="targetPoint"/>
                    </mxGeometry>
                </mxCell>
                <mxCell id="71VljPQ-4sb787qT-ypq-2" value="" style="endArrow=classic;html=1;rounded=0;" parent="nOBV6p7rp-YeCwguWGeW-1" edge="1">
                    <mxGeometry width="50" height="50" relative="1" as="geometry">
                        <mxPoint x="-30" y="200" as="sourcePoint"/>
                        <mxPoint x="110" y="80" as="targetPoint"/>
                    </mxGeometry>
                </mxCell>
            </root>
        </mxGraphModel>
    </diagram>
    <diagram id="8rljQJpVP2cf8zGHvLNZ" name="*ユーザ権限編集">
        <mxGraphModel dx="2122" dy="717" grid="1" gridSize="10" guides="1" tooltips="1" connect="1" arrows="1" fold="1" page="1" pageScale="1" pageWidth="827" pageHeight="1169" math="0" shadow="0">
            <root>
                <mxCell id="KRAYQnu5lO2XR03qIK7f-0"/>
                <mxCell id="KRAYQnu5lO2XR03qIK7f-1" parent="KRAYQnu5lO2XR03qIK7f-0"/>
                <mxCell id="KRAYQnu5lO2XR03qIK7f-2" value="管理者" style="shape=umlActor;verticalLabelPosition=bottom;verticalAlign=top;html=1;" parent="KRAYQnu5lO2XR03qIK7f-1" vertex="1">
                    <mxGeometry x="-70" y="280" width="30" height="60" as="geometry"/>
                </mxCell>
                <mxCell id="KRAYQnu5lO2XR03qIK7f-3" value="ログイン済&lt;br&gt;ホーム画面" style="shape=umlBoundary;whiteSpace=wrap;html=1;fillColor=#dae8fc;strokeColor=#6c8ebf;" parent="KRAYQnu5lO2XR03qIK7f-1" vertex="1">
                    <mxGeometry x="120" y="120" width="100" height="80" as="geometry"/>
                </mxCell>
                <mxCell id="KRAYQnu5lO2XR03qIK7f-4" value="権限編集&lt;br&gt;画面" style="shape=umlBoundary;whiteSpace=wrap;html=1;fillColor=#dae8fc;strokeColor=#6c8ebf;" parent="KRAYQnu5lO2XR03qIK7f-1" vertex="1">
                    <mxGeometry x="120" y="440" width="100" height="80" as="geometry"/>
                </mxCell>
                <mxCell id="KRAYQnu5lO2XR03qIK7f-5" value="" style="endArrow=classic;html=1;rounded=0;" parent="KRAYQnu5lO2XR03qIK7f-1" edge="1">
                    <mxGeometry width="50" height="50" relative="1" as="geometry">
                        <mxPoint x="-29.999999999999773" y="320" as="sourcePoint"/>
                        <mxPoint x="110" y="159.9999999999999" as="targetPoint"/>
                    </mxGeometry>
                </mxCell>
                <mxCell id="KRAYQnu5lO2XR03qIK7f-6" value="「ユーザ権限マスタ」を押下" style="text;html=1;strokeColor=none;fillColor=none;align=center;verticalAlign=middle;whiteSpace=wrap;rounded=0;" parent="KRAYQnu5lO2XR03qIK7f-1" vertex="1">
                    <mxGeometry x="260" y="120" width="130" height="30" as="geometry"/>
                </mxCell>
                <mxCell id="KRAYQnu5lO2XR03qIK7f-7" value="権限情報を取得する" style="ellipse;shape=umlControl;whiteSpace=wrap;html=1;fillColor=#f8cecc;strokeColor=#b85450;" parent="KRAYQnu5lO2XR03qIK7f-1" vertex="1">
                    <mxGeometry x="414" y="120" width="70" height="80" as="geometry"/>
                </mxCell>
                <mxCell id="KRAYQnu5lO2XR03qIK7f-8" value="更新する" style="ellipse;shape=umlControl;whiteSpace=wrap;html=1;fillColor=#f8cecc;strokeColor=#b85450;" parent="KRAYQnu5lO2XR03qIK7f-1" vertex="1">
                    <mxGeometry x="414" y="600" width="70" height="80" as="geometry"/>
                </mxCell>
                <mxCell id="KRAYQnu5lO2XR03qIK7f-9" value="" style="endArrow=classic;html=1;rounded=0;" parent="KRAYQnu5lO2XR03qIK7f-1" edge="1">
                    <mxGeometry width="50" height="50" relative="1" as="geometry">
                        <mxPoint x="240" y="159.9999999999999" as="sourcePoint"/>
                        <mxPoint x="400" y="159.9999999999999" as="targetPoint"/>
                    </mxGeometry>
                </mxCell>
                <mxCell id="KRAYQnu5lO2XR03qIK7f-10" value="権限情報" style="ellipse;shape=umlEntity;whiteSpace=wrap;html=1;fillColor=#d5e8d4;strokeColor=#82b366;" parent="KRAYQnu5lO2XR03qIK7f-1" vertex="1">
                    <mxGeometry x="640" y="200" width="80" height="80" as="geometry"/>
                </mxCell>
                <mxCell id="KRAYQnu5lO2XR03qIK7f-11" value="" style="endArrow=classic;html=1;rounded=0;startArrow=classic;startFill=1;" parent="KRAYQnu5lO2XR03qIK7f-1" edge="1">
                    <mxGeometry width="50" height="50" relative="1" as="geometry">
                        <mxPoint x="500" y="159.9999999999999" as="sourcePoint"/>
                        <mxPoint x="630" y="239.9999999999999" as="targetPoint"/>
                    </mxGeometry>
                </mxCell>
                <mxCell id="KRAYQnu5lO2XR03qIK7f-12" value="" style="endArrow=classic;html=1;rounded=0;" parent="KRAYQnu5lO2XR03qIK7f-1" edge="1">
                    <mxGeometry width="50" height="50" relative="1" as="geometry">
                        <mxPoint x="-29.999999999999773" y="320" as="sourcePoint"/>
                        <mxPoint x="110" y="480" as="targetPoint"/>
                    </mxGeometry>
                </mxCell>
                <mxCell id="KRAYQnu5lO2XR03qIK7f-13" value="更新内容を検証する" style="ellipse;shape=umlControl;whiteSpace=wrap;html=1;fillColor=#f8cecc;strokeColor=#b85450;" parent="KRAYQnu5lO2XR03qIK7f-1" vertex="1">
                    <mxGeometry x="414" y="440" width="70" height="80" as="geometry"/>
                </mxCell>
                <mxCell id="KRAYQnu5lO2XR03qIK7f-14" value="" style="endArrow=classic;startArrow=classic;html=1;rounded=0;" parent="KRAYQnu5lO2XR03qIK7f-1" edge="1">
                    <mxGeometry width="50" height="50" relative="1" as="geometry">
                        <mxPoint x="240" y="480" as="sourcePoint"/>
                        <mxPoint x="400" y="480" as="targetPoint"/>
                    </mxGeometry>
                </mxCell>
                <mxCell id="KRAYQnu5lO2XR03qIK7f-15" value="" style="endArrow=classic;html=1;rounded=0;entryX=0.514;entryY=0;entryDx=0;entryDy=0;entryPerimeter=0;" parent="KRAYQnu5lO2XR03qIK7f-1" target="KRAYQnu5lO2XR03qIK7f-8" edge="1">
                    <mxGeometry width="50" height="50" relative="1" as="geometry">
                        <mxPoint x="450" y="530" as="sourcePoint"/>
                        <mxPoint x="510" y="330" as="targetPoint"/>
                    </mxGeometry>
                </mxCell>
                <mxCell id="KRAYQnu5lO2XR03qIK7f-16" value="" style="endArrow=classic;html=1;rounded=0;" parent="KRAYQnu5lO2XR03qIK7f-1" edge="1">
                    <mxGeometry width="50" height="50" relative="1" as="geometry">
                        <mxPoint x="490" y="640" as="sourcePoint"/>
                        <mxPoint x="630" y="259.9999999999999" as="targetPoint"/>
                    </mxGeometry>
                </mxCell>
                <mxCell id="KRAYQnu5lO2XR03qIK7f-17" value="" style="endArrow=classic;html=1;rounded=0;" parent="KRAYQnu5lO2XR03qIK7f-1" edge="1">
                    <mxGeometry width="50" height="50" relative="1" as="geometry">
                        <mxPoint x="410" y="189.9999999999999" as="sourcePoint"/>
                        <mxPoint x="210" y="430" as="targetPoint"/>
                    </mxGeometry>
                </mxCell>
                <mxCell id="KRAYQnu5lO2XR03qIK7f-18" value="選択内容に問題があればエラーメッセージを&lt;br&gt;表示する" style="text;html=1;strokeColor=none;fillColor=none;align=center;verticalAlign=middle;whiteSpace=wrap;rounded=0;" parent="KRAYQnu5lO2XR03qIK7f-1" vertex="1">
                    <mxGeometry x="250" y="490" width="140" height="30" as="geometry"/>
                </mxCell>
            </root>
        </mxGraphModel>
    </diagram>
    <diagram id="J6VQVWwLp_xhOfZSVtFy" name="*従業員情報参照">
        <mxGraphModel dx="1816" dy="430" grid="1" gridSize="10" guides="1" tooltips="1" connect="1" arrows="1" fold="1" page="1" pageScale="1" pageWidth="827" pageHeight="1169" math="0" shadow="0">
            <root>
                <mxCell id="bVZB3vS4jX3ZoeBwVVSb-0"/>
                <mxCell id="bVZB3vS4jX3ZoeBwVVSb-1" parent="bVZB3vS4jX3ZoeBwVVSb-0"/>
                <mxCell id="nJg_hH3APXqxuItrQ8fL-0" value="ログイン済&lt;br&gt;ホーム画面" style="shape=umlBoundary;whiteSpace=wrap;html=1;fillColor=#dae8fc;strokeColor=#6c8ebf;" parent="bVZB3vS4jX3ZoeBwVVSb-1" vertex="1">
                    <mxGeometry x="120" y="120" width="100" height="80" as="geometry"/>
                </mxCell>
                <mxCell id="nJg_hH3APXqxuItrQ8fL-1" value="従業員情報&lt;br&gt;一覧画面" style="shape=umlBoundary;whiteSpace=wrap;html=1;fillColor=#dae8fc;strokeColor=#6c8ebf;" parent="bVZB3vS4jX3ZoeBwVVSb-1" vertex="1">
                    <mxGeometry x="120" y="280" width="100" height="80" as="geometry"/>
                </mxCell>
                <mxCell id="nJg_hH3APXqxuItrQ8fL-2" value="詳細画面" style="shape=umlBoundary;whiteSpace=wrap;html=1;fillColor=#dae8fc;strokeColor=#6c8ebf;" parent="bVZB3vS4jX3ZoeBwVVSb-1" vertex="1">
                    <mxGeometry x="120" y="440" width="100" height="80" as="geometry"/>
                </mxCell>
                <mxCell id="nJg_hH3APXqxuItrQ8fL-3" value="" style="endArrow=classic;html=1;rounded=0;" parent="bVZB3vS4jX3ZoeBwVVSb-1" edge="1">
                    <mxGeometry width="50" height="50" relative="1" as="geometry">
                        <mxPoint x="-29.999999999999773" y="320" as="sourcePoint"/>
                        <mxPoint x="110" y="159.9999999999999" as="targetPoint"/>
                    </mxGeometry>
                </mxCell>
                <mxCell id="nJg_hH3APXqxuItrQ8fL-4" value="" style="endArrow=classic;html=1;rounded=0;" parent="bVZB3vS4jX3ZoeBwVVSb-1" edge="1">
                    <mxGeometry width="50" height="50" relative="1" as="geometry">
                        <mxPoint x="-29.999999999999773" y="320" as="sourcePoint"/>
                        <mxPoint x="110" y="480" as="targetPoint"/>
                    </mxGeometry>
                </mxCell>
                <mxCell id="nJg_hH3APXqxuItrQ8fL-5" value="「従業員情報」を押下" style="text;html=1;strokeColor=none;fillColor=none;align=center;verticalAlign=middle;whiteSpace=wrap;rounded=0;" parent="bVZB3vS4jX3ZoeBwVVSb-1" vertex="1">
                    <mxGeometry x="270" y="120" width="90" height="30" as="geometry"/>
                </mxCell>
                <mxCell id="nJg_hH3APXqxuItrQ8fL-6" value="" style="endArrow=classic;html=1;rounded=0;" parent="bVZB3vS4jX3ZoeBwVVSb-1" edge="1">
                    <mxGeometry width="50" height="50" relative="1" as="geometry">
                        <mxPoint x="-29.999999999999773" y="320" as="sourcePoint"/>
                        <mxPoint x="110" y="320" as="targetPoint"/>
                    </mxGeometry>
                </mxCell>
                <mxCell id="nJg_hH3APXqxuItrQ8fL-7" value="正規社員&lt;br&gt;非正規社員" style="shape=umlActor;verticalLabelPosition=bottom;verticalAlign=top;html=1;" parent="bVZB3vS4jX3ZoeBwVVSb-1" vertex="1">
                    <mxGeometry x="-70" y="280" width="30" height="60" as="geometry"/>
                </mxCell>
                <mxCell id="nJg_hH3APXqxuItrQ8fL-8" value="従業員情報&lt;br&gt;を取得する" style="ellipse;shape=umlControl;whiteSpace=wrap;html=1;fillColor=#f8cecc;strokeColor=#b85450;" parent="bVZB3vS4jX3ZoeBwVVSb-1" vertex="1">
                    <mxGeometry x="414" y="120" width="70" height="80" as="geometry"/>
                </mxCell>
                <mxCell id="nJg_hH3APXqxuItrQ8fL-9" value="表示する" style="ellipse;shape=umlControl;whiteSpace=wrap;html=1;fillColor=#f8cecc;strokeColor=#b85450;" parent="bVZB3vS4jX3ZoeBwVVSb-1" vertex="1">
                    <mxGeometry x="414" y="280" width="70" height="80" as="geometry"/>
                </mxCell>
                <mxCell id="nJg_hH3APXqxuItrQ8fL-10" value="" style="endArrow=classic;html=1;rounded=0;" parent="bVZB3vS4jX3ZoeBwVVSb-1" edge="1">
                    <mxGeometry width="50" height="50" relative="1" as="geometry">
                        <mxPoint x="240" y="159.9999999999999" as="sourcePoint"/>
                        <mxPoint x="400" y="159.9999999999999" as="targetPoint"/>
                    </mxGeometry>
                </mxCell>
                <mxCell id="nJg_hH3APXqxuItrQ8fL-11" value="" style="endArrow=classic;html=1;rounded=0;" parent="bVZB3vS4jX3ZoeBwVVSb-1" edge="1">
                    <mxGeometry width="50" height="50" relative="1" as="geometry">
                        <mxPoint x="400" y="330" as="sourcePoint"/>
                        <mxPoint x="240" y="480" as="targetPoint"/>
                    </mxGeometry>
                </mxCell>
                <mxCell id="nJg_hH3APXqxuItrQ8fL-12" value="従業員情報" style="ellipse;shape=umlEntity;whiteSpace=wrap;html=1;fillColor=#d5e8d4;strokeColor=#82b366;" parent="bVZB3vS4jX3ZoeBwVVSb-1" vertex="1">
                    <mxGeometry x="640" y="200" width="80" height="80" as="geometry"/>
                </mxCell>
                <mxCell id="nJg_hH3APXqxuItrQ8fL-13" value="" style="endArrow=classic;html=1;rounded=0;startArrow=classic;startFill=1;" parent="bVZB3vS4jX3ZoeBwVVSb-1" edge="1">
                    <mxGeometry width="50" height="50" relative="1" as="geometry">
                        <mxPoint x="500" y="159.9999999999999" as="sourcePoint"/>
                        <mxPoint x="630" y="239.9999999999999" as="targetPoint"/>
                    </mxGeometry>
                </mxCell>
                <mxCell id="nJg_hH3APXqxuItrQ8fL-15" value="" style="endArrow=classic;startArrow=none;html=1;rounded=0;startFill=0;" parent="bVZB3vS4jX3ZoeBwVVSb-1" edge="1">
                    <mxGeometry width="50" height="50" relative="1" as="geometry">
                        <mxPoint x="240" y="320" as="sourcePoint"/>
                        <mxPoint x="400" y="320" as="targetPoint"/>
                    </mxGeometry>
                </mxCell>
                <mxCell id="nJg_hH3APXqxuItrQ8fL-16" value="" style="endArrow=classic;html=1;rounded=0;" parent="bVZB3vS4jX3ZoeBwVVSb-1" edge="1">
                    <mxGeometry width="50" height="50" relative="1" as="geometry">
                        <mxPoint x="410" y="190" as="sourcePoint"/>
                        <mxPoint x="230" y="300" as="targetPoint"/>
                    </mxGeometry>
                </mxCell>
            </root>
        </mxGraphModel>
    </diagram>
    <diagram id="n8MwB2peb2suapYu6MIm" name="*店舗情報参照">
        <mxGraphModel dx="1816" dy="430" grid="1" gridSize="10" guides="1" tooltips="1" connect="1" arrows="1" fold="1" page="1" pageScale="1" pageWidth="827" pageHeight="1169" math="0" shadow="0">
            <root>
                <mxCell id="-Zp-b05N4_6l_6rreAiu-0"/>
                <mxCell id="-Zp-b05N4_6l_6rreAiu-1" parent="-Zp-b05N4_6l_6rreAiu-0"/>
                <mxCell id="9oqTO0q-d8bOJXzve-tl-0" value="ログイン済&lt;br&gt;ホーム画面" style="shape=umlBoundary;whiteSpace=wrap;html=1;fillColor=#dae8fc;strokeColor=#6c8ebf;" parent="-Zp-b05N4_6l_6rreAiu-1" vertex="1">
                    <mxGeometry x="120" y="120" width="100" height="80" as="geometry"/>
                </mxCell>
                <mxCell id="9oqTO0q-d8bOJXzve-tl-1" value="店舗情報&lt;br&gt;一覧画面" style="shape=umlBoundary;whiteSpace=wrap;html=1;fillColor=#dae8fc;strokeColor=#6c8ebf;" parent="-Zp-b05N4_6l_6rreAiu-1" vertex="1">
                    <mxGeometry x="120" y="280" width="100" height="80" as="geometry"/>
                </mxCell>
                <mxCell id="9oqTO0q-d8bOJXzve-tl-2" value="詳細画面" style="shape=umlBoundary;whiteSpace=wrap;html=1;fillColor=#dae8fc;strokeColor=#6c8ebf;" parent="-Zp-b05N4_6l_6rreAiu-1" vertex="1">
                    <mxGeometry x="120" y="440" width="100" height="80" as="geometry"/>
                </mxCell>
                <mxCell id="9oqTO0q-d8bOJXzve-tl-3" value="" style="endArrow=classic;html=1;rounded=0;" parent="-Zp-b05N4_6l_6rreAiu-1" edge="1">
                    <mxGeometry width="50" height="50" relative="1" as="geometry">
                        <mxPoint x="-29.999999999999773" y="320" as="sourcePoint"/>
                        <mxPoint x="110" y="159.9999999999999" as="targetPoint"/>
                    </mxGeometry>
                </mxCell>
                <mxCell id="9oqTO0q-d8bOJXzve-tl-4" value="" style="endArrow=classic;html=1;rounded=0;" parent="-Zp-b05N4_6l_6rreAiu-1" edge="1">
                    <mxGeometry width="50" height="50" relative="1" as="geometry">
                        <mxPoint x="-29.999999999999773" y="320" as="sourcePoint"/>
                        <mxPoint x="110" y="480" as="targetPoint"/>
                    </mxGeometry>
                </mxCell>
                <mxCell id="9oqTO0q-d8bOJXzve-tl-5" value="「店舗情報」&lt;br&gt;を押下" style="text;html=1;strokeColor=none;fillColor=none;align=center;verticalAlign=middle;whiteSpace=wrap;rounded=0;" parent="-Zp-b05N4_6l_6rreAiu-1" vertex="1">
                    <mxGeometry x="270" y="120" width="90" height="30" as="geometry"/>
                </mxCell>
                <mxCell id="9oqTO0q-d8bOJXzve-tl-6" value="" style="endArrow=classic;html=1;rounded=0;" parent="-Zp-b05N4_6l_6rreAiu-1" edge="1">
                    <mxGeometry width="50" height="50" relative="1" as="geometry">
                        <mxPoint x="-29.999999999999773" y="320" as="sourcePoint"/>
                        <mxPoint x="110" y="320" as="targetPoint"/>
                    </mxGeometry>
                </mxCell>
                <mxCell id="9oqTO0q-d8bOJXzve-tl-7" value="正規社員&lt;br&gt;非正規社員" style="shape=umlActor;verticalLabelPosition=bottom;verticalAlign=top;html=1;" parent="-Zp-b05N4_6l_6rreAiu-1" vertex="1">
                    <mxGeometry x="-70" y="280" width="30" height="60" as="geometry"/>
                </mxCell>
                <mxCell id="9oqTO0q-d8bOJXzve-tl-8" value="店舗情報&lt;br&gt;を取得する" style="ellipse;shape=umlControl;whiteSpace=wrap;html=1;fillColor=#f8cecc;strokeColor=#b85450;" parent="-Zp-b05N4_6l_6rreAiu-1" vertex="1">
                    <mxGeometry x="414" y="120" width="70" height="80" as="geometry"/>
                </mxCell>
                <mxCell id="9oqTO0q-d8bOJXzve-tl-9" value="表示する" style="ellipse;shape=umlControl;whiteSpace=wrap;html=1;fillColor=#f8cecc;strokeColor=#b85450;" parent="-Zp-b05N4_6l_6rreAiu-1" vertex="1">
                    <mxGeometry x="414" y="280" width="70" height="80" as="geometry"/>
                </mxCell>
                <mxCell id="9oqTO0q-d8bOJXzve-tl-10" value="" style="endArrow=classic;html=1;rounded=0;" parent="-Zp-b05N4_6l_6rreAiu-1" edge="1">
                    <mxGeometry width="50" height="50" relative="1" as="geometry">
                        <mxPoint x="240" y="159.9999999999999" as="sourcePoint"/>
                        <mxPoint x="400" y="159.9999999999999" as="targetPoint"/>
                    </mxGeometry>
                </mxCell>
                <mxCell id="9oqTO0q-d8bOJXzve-tl-11" value="" style="endArrow=classic;html=1;rounded=0;" parent="-Zp-b05N4_6l_6rreAiu-1" edge="1">
                    <mxGeometry width="50" height="50" relative="1" as="geometry">
                        <mxPoint x="400" y="330" as="sourcePoint"/>
                        <mxPoint x="240" y="480" as="targetPoint"/>
                    </mxGeometry>
                </mxCell>
                <mxCell id="9oqTO0q-d8bOJXzve-tl-12" value="店舗情報" style="ellipse;shape=umlEntity;whiteSpace=wrap;html=1;fillColor=#d5e8d4;strokeColor=#82b366;" parent="-Zp-b05N4_6l_6rreAiu-1" vertex="1">
                    <mxGeometry x="640" y="200" width="80" height="80" as="geometry"/>
                </mxCell>
                <mxCell id="9oqTO0q-d8bOJXzve-tl-13" value="" style="endArrow=classic;html=1;rounded=0;startArrow=classic;startFill=1;" parent="-Zp-b05N4_6l_6rreAiu-1" edge="1">
                    <mxGeometry width="50" height="50" relative="1" as="geometry">
                        <mxPoint x="500" y="159.9999999999999" as="sourcePoint"/>
                        <mxPoint x="630" y="239.9999999999999" as="targetPoint"/>
                    </mxGeometry>
                </mxCell>
                <mxCell id="9oqTO0q-d8bOJXzve-tl-14" value="" style="endArrow=classic;startArrow=none;html=1;rounded=0;startFill=0;" parent="-Zp-b05N4_6l_6rreAiu-1" edge="1">
                    <mxGeometry width="50" height="50" relative="1" as="geometry">
                        <mxPoint x="240" y="320" as="sourcePoint"/>
                        <mxPoint x="400" y="320" as="targetPoint"/>
                    </mxGeometry>
                </mxCell>
                <mxCell id="9oqTO0q-d8bOJXzve-tl-15" value="" style="endArrow=classic;html=1;rounded=0;" parent="-Zp-b05N4_6l_6rreAiu-1" edge="1">
                    <mxGeometry width="50" height="50" relative="1" as="geometry">
                        <mxPoint x="410" y="189.9999999999999" as="sourcePoint"/>
                        <mxPoint x="230" y="300" as="targetPoint"/>
                    </mxGeometry>
                </mxCell>
            </root>
        </mxGraphModel>
    </diagram>
    <diagram id="H8nFw5nNeNQx_T4gaD8O" name="*勤務店舗状況管理_参照">
        <mxGraphModel dx="2475" dy="717" grid="1" gridSize="10" guides="1" tooltips="1" connect="1" arrows="1" fold="1" page="1" pageScale="1" pageWidth="827" pageHeight="1169" math="0" shadow="0">
            <root>
                <mxCell id="NyvIg0s3OZugaIVglc1--0"/>
                <mxCell id="NyvIg0s3OZugaIVglc1--1" parent="NyvIg0s3OZugaIVglc1--0"/>
                <mxCell id="d1qNruS7EimZGCYmMR4g-0" value="正規社員&lt;br&gt;非正規社員" style="shape=umlActor;verticalLabelPosition=bottom;verticalAlign=top;html=1;" parent="NyvIg0s3OZugaIVglc1--1" vertex="1">
                    <mxGeometry x="-70" y="280" width="30" height="60" as="geometry"/>
                </mxCell>
                <mxCell id="d1qNruS7EimZGCYmMR4g-1" value="ログイン済&lt;br&gt;ホーム画面" style="shape=umlBoundary;whiteSpace=wrap;html=1;fillColor=#dae8fc;strokeColor=#6c8ebf;" parent="NyvIg0s3OZugaIVglc1--1" vertex="1">
                    <mxGeometry x="120" y="120" width="100" height="80" as="geometry"/>
                </mxCell>
                <mxCell id="d1qNruS7EimZGCYmMR4g-2" value="勤務店舗状況&lt;br&gt;一覧画面" style="shape=umlBoundary;whiteSpace=wrap;html=1;fillColor=#dae8fc;strokeColor=#6c8ebf;" parent="NyvIg0s3OZugaIVglc1--1" vertex="1">
                    <mxGeometry x="120" y="280" width="100" height="80" as="geometry"/>
                </mxCell>
                <mxCell id="d1qNruS7EimZGCYmMR4g-3" value="" style="endArrow=classic;html=1;rounded=0;" parent="NyvIg0s3OZugaIVglc1--1" edge="1">
                    <mxGeometry width="50" height="50" relative="1" as="geometry">
                        <mxPoint x="-30.000000000000227" y="320" as="sourcePoint"/>
                        <mxPoint x="110" y="159.9999999999999" as="targetPoint"/>
                    </mxGeometry>
                </mxCell>
                <mxCell id="d1qNruS7EimZGCYmMR4g-4" value="「勤務店舗状況」&lt;br&gt;を押下" style="text;html=1;strokeColor=none;fillColor=none;align=center;verticalAlign=middle;whiteSpace=wrap;rounded=0;" parent="NyvIg0s3OZugaIVglc1--1" vertex="1">
                    <mxGeometry x="250" y="130" width="150" height="30" as="geometry"/>
                </mxCell>
                <mxCell id="d1qNruS7EimZGCYmMR4g-5" value="勤務店舗&lt;br&gt;状況を&lt;br&gt;取得する" style="ellipse;shape=umlControl;whiteSpace=wrap;html=1;fillColor=#f8cecc;strokeColor=#b85450;" parent="NyvIg0s3OZugaIVglc1--1" vertex="1">
                    <mxGeometry x="414" y="120" width="70" height="80" as="geometry"/>
                </mxCell>
                <mxCell id="d1qNruS7EimZGCYmMR4g-8" value="" style="endArrow=classic;html=1;rounded=0;startArrow=none;startFill=0;" parent="NyvIg0s3OZugaIVglc1--1" edge="1">
                    <mxGeometry width="50" height="50" relative="1" as="geometry">
                        <mxPoint x="240" y="159.9999999999999" as="sourcePoint"/>
                        <mxPoint x="400" y="159.9999999999999" as="targetPoint"/>
                    </mxGeometry>
                </mxCell>
                <mxCell id="d1qNruS7EimZGCYmMR4g-9" value="勤務店舗状況" style="ellipse;shape=umlEntity;whiteSpace=wrap;html=1;fillColor=#d5e8d4;strokeColor=#82b366;" parent="NyvIg0s3OZugaIVglc1--1" vertex="1">
                    <mxGeometry x="640" y="200" width="80" height="80" as="geometry"/>
                </mxCell>
                <mxCell id="d1qNruS7EimZGCYmMR4g-10" value="" style="endArrow=classic;html=1;rounded=0;startArrow=classic;startFill=1;" parent="NyvIg0s3OZugaIVglc1--1" edge="1">
                    <mxGeometry width="50" height="50" relative="1" as="geometry">
                        <mxPoint x="500" y="159.9999999999999" as="sourcePoint"/>
                        <mxPoint x="630" y="239.9999999999999" as="targetPoint"/>
                    </mxGeometry>
                </mxCell>
                <mxCell id="d1qNruS7EimZGCYmMR4g-13" value="" style="endArrow=classic;html=1;rounded=0;" parent="NyvIg0s3OZugaIVglc1--1" edge="1">
                    <mxGeometry width="50" height="50" relative="1" as="geometry">
                        <mxPoint x="-30.000000000000227" y="320" as="sourcePoint"/>
                        <mxPoint x="110" y="320" as="targetPoint"/>
                    </mxGeometry>
                </mxCell>
                <mxCell id="d1qNruS7EimZGCYmMR4g-17" value="" style="endArrow=classic;html=1;rounded=0;" parent="NyvIg0s3OZugaIVglc1--1" edge="1">
                    <mxGeometry width="50" height="50" relative="1" as="geometry">
                        <mxPoint x="400" y="170" as="sourcePoint"/>
                        <mxPoint x="240" y="310" as="targetPoint"/>
                    </mxGeometry>
                </mxCell>
            </root>
        </mxGraphModel>
    </diagram>
</mxfile>